<?xml version="1.0" encoding="UTF-8"?>
<svg xmlns="http://www.w3.org/2000/svg" xmlns:xlink="http://www.w3.org/1999/xlink" width="155px" height="58px" viewBox="0 0 155 58" version="1.1">
<g id="surface1">
<path style=" stroke:none;fill-rule:evenodd;fill:rgb(99.215686%,99.607843%,99.607843%);fill-opacity:1;" d="M -0.113281 -0.113281 C 51.554688 -0.113281 103.21875 -0.113281 154.886719 -0.113281 C 154.886719 19.222656 154.886719 38.554688 154.886719 57.886719 C 103.21875 57.886719 51.554688 57.886719 -0.113281 57.886719 C -0.113281 38.554688 -0.113281 19.222656 -0.113281 -0.113281 Z M -0.113281 -0.113281 "/>
<path style=" stroke:none;fill-rule:evenodd;fill:rgb(98.431373%,98.823529%,98.823529%);fill-opacity:1;" d="M 42.714844 12.75 C 42.40625 13.445312 42.027344 14.117188 41.582031 14.785156 C 39.617188 13.378906 37.429688 12.546875 35.011719 12.296875 C 35.011719 11.996094 35.011719 11.699219 35.011719 11.394531 C 34.9375 9.734375 35.011719 8.078125 35.238281 6.429688 C 35.789062 6.136719 36.28125 5.761719 36.710938 5.304688 C 38.449219 6.507812 40.183594 7.710938 41.921875 8.914062 C 41.933594 9.980469 42.351562 10.839844 43.167969 11.507812 C 42.984375 11.914062 42.832031 12.328125 42.714844 12.75 Z M 42.714844 12.75 "/>
<path style=" stroke:none;fill-rule:evenodd;fill:rgb(98.823529%,98.823529%,98.823529%);fill-opacity:1;" d="M 33.878906 6.429688 C 33.878906 8.386719 33.878906 10.34375 33.878906 12.296875 C 31.582031 12.5625 29.46875 13.308594 27.53125 14.558594 C 26.832031 13.601562 26.304688 12.546875 25.945312 11.394531 C 26.597656 10.546875 27.050781 9.609375 27.304688 8.574219 C 28.816406 7.601562 30.328125 6.621094 31.839844 5.640625 C 32.542969 5.765625 33.222656 6.027344 33.878906 6.429688 Z M 33.878906 6.429688 "/>
<path style=" stroke:none;fill-rule:evenodd;fill:rgb(26.666667%,58.823529%,79.607843%);fill-opacity:1;" d="M 43.621094 13.199219 C 43.171875 13.28125 42.871094 13.128906 42.714844 12.75 C 42.832031 12.328125 42.984375 11.914062 43.167969 11.507812 C 42.351562 10.839844 41.933594 9.980469 41.921875 8.914062 C 40.183594 7.710938 38.449219 6.507812 36.710938 5.304688 C 36.28125 5.761719 35.789062 6.136719 35.238281 6.429688 C 35.011719 8.078125 34.9375 9.734375 35.011719 11.394531 C 34.835938 11.566406 34.722656 11.792969 34.671875 12.070312 C 34.464844 11.242188 34.3125 11.316406 34.21875 12.296875 C 34.179688 10.304688 34.066406 8.347656 33.878906 6.429688 C 33.222656 6.027344 32.542969 5.765625 31.839844 5.640625 C 30.328125 6.621094 28.816406 7.601562 27.304688 8.574219 C 27.050781 9.609375 26.597656 10.546875 25.945312 11.394531 C 25.421875 11.695312 24.816406 11.695312 24.132812 11.394531 C 23.015625 11.183594 22.488281 10.507812 22.546875 9.367188 C 21.339844 9.367188 20.128906 9.367188 18.921875 9.367188 C 18.085938 11.460938 16.652344 11.949219 14.617188 10.832031 C 13.421875 9.417969 13.421875 7.988281 14.617188 6.542969 C 16.707031 5.410156 18.21875 5.941406 19.148438 8.121094 C 20.355469 8.273438 21.566406 8.273438 22.773438 8.121094 C 23.863281 6.902344 25.070312 6.792969 26.398438 7.785156 C 28.175781 6.714844 29.914062 5.585938 31.613281 4.398438 C 31.890625 1.671875 33.328125 0.738281 35.917969 1.578125 C 36.105469 1.765625 36.296875 1.957031 36.484375 2.140625 C 36.824219 2.949219 37.164062 3.742188 37.503906 4.511719 C 39.222656 5.652344 40.921875 6.816406 42.601562 8.007812 C 43.957031 6.777344 45.203125 6.890625 46.339844 8.347656 C 47.546875 8.460938 48.757812 8.5 49.96875 8.460938 C 50.640625 5.933594 52.152344 5.289062 54.5 6.542969 C 55.867188 8.363281 55.640625 9.941406 53.820312 11.285156 C 52.167969 11.792969 50.957031 11.308594 50.195312 9.816406 C 48.917969 9.59375 47.632812 9.519531 46.339844 9.589844 C 46.136719 10.8125 45.417969 11.566406 44.1875 11.847656 C 44.058594 12.332031 43.871094 12.78125 43.621094 13.199219 Z M 43.621094 13.199219 "/>
<path style=" stroke:none;fill-rule:evenodd;fill:rgb(50.588235%,78.823529%,96.078431%);fill-opacity:1;" d="M 43.621094 8.460938 C 45.25 8.347656 45.625 8.984375 44.753906 10.378906 C 43.148438 10.472656 42.769531 9.828125 43.621094 8.460938 Z M 43.621094 8.460938 "/>
<path style=" stroke:none;fill-rule:evenodd;fill:rgb(58.431373%,83.921569%,97.647059%);fill-opacity:1;" d="M 24.132812 8.234375 C 25.304688 8.160156 25.796875 8.6875 25.605469 9.816406 C 24.683594 10.800781 23.964844 10.652344 23.453125 9.367188 C 23.625 8.945312 23.851562 8.570312 24.132812 8.234375 Z M 24.132812 8.234375 "/>
<path style=" stroke:none;fill-rule:evenodd;fill:rgb(45.098039%,74.509804%,93.333333%);fill-opacity:1;" d="M 52.007812 7.109375 C 53.617188 7.019531 54.335938 7.769531 54.160156 9.367188 C 53.15625 10.566406 52.171875 10.566406 51.214844 9.367188 C 50.929688 8.394531 51.195312 7.644531 52.007812 7.109375 Z M 52.007812 7.109375 "/>
<path style=" stroke:none;fill-rule:evenodd;fill:rgb(60%,83.921569%,97.647059%);fill-opacity:1;" d="M 15.75 7.109375 C 17.792969 7.136719 18.320312 8.039062 17.335938 9.816406 C 15.582031 10.441406 14.789062 9.835938 14.957031 8.007812 C 15.269531 7.738281 15.53125 7.4375 15.75 7.109375 Z M 15.75 7.109375 "/>
<path style=" stroke:none;fill-rule:evenodd;fill:rgb(59.607843%,82.745098%,97.254902%);fill-opacity:1;" d="M 33.652344 2.367188 C 35.164062 2.117188 35.882812 2.71875 35.804688 4.175781 C 35.003906 5.585938 34.097656 5.660156 33.085938 4.398438 C 32.886719 3.613281 33.078125 2.933594 33.652344 2.367188 Z M 33.652344 2.367188 "/>
<path style=" stroke:none;fill-rule:evenodd;fill:rgb(60%,83.529412%,96.470588%);fill-opacity:1;" d="M 54.5 14.558594 C 56.023438 15.917969 55.949219 17.230469 54.273438 18.507812 C 53.371094 18.726562 52.542969 18.617188 51.78125 18.167969 C 50.546875 16.875 50.625 15.636719 52.007812 14.441406 C 52.863281 13.984375 53.695312 14.019531 54.5 14.558594 Z M 54.5 14.558594 "/>
<path style=" stroke:none;fill-rule:evenodd;fill:rgb(18.431373%,48.627451%,70.980392%);fill-opacity:1;" d="M 63.109375 18.847656 C 63.40625 18.628906 63.558594 18.324219 63.5625 17.941406 C 62.742188 17.9375 62.0625 18.238281 61.523438 18.847656 C 60.917969 18.46875 60.464844 17.941406 60.164062 17.265625 C 58.964844 17.042969 57.757812 16.964844 56.539062 17.042969 C 56.414062 18.332031 55.734375 19.199219 54.5 19.632812 C 53.507812 19.714844 52.566406 19.753906 51.667969 19.746094 C 51.144531 20.449219 50.65625 21.160156 50.195312 21.890625 C 50.527344 22.441406 50.828125 23.007812 51.101562 23.582031 C 50.648438 23.882812 50.195312 23.882812 49.742188 23.582031 C 49.441406 22.910156 49.140625 22.234375 48.835938 21.554688 C 49.625 20.734375 50.304688 19.828125 50.875 18.847656 C 51.105469 18.539062 51.40625 18.3125 51.78125 18.167969 C 52.542969 18.617188 53.371094 18.726562 54.273438 18.507812 C 55.949219 17.230469 56.023438 15.917969 54.5 14.558594 C 54.8125 14.34375 55.113281 14.117188 55.40625 13.878906 C 56.105469 14.332031 56.558594 14.972656 56.765625 15.800781 C 57.824219 15.945312 58.878906 15.945312 59.9375 15.800781 C 60.699219 13.675781 62.132812 13.078125 64.242188 13.988281 C 65.753906 15.496094 65.753906 17.003906 64.242188 18.507812 C 63.898438 18.734375 63.519531 18.847656 63.109375 18.847656 Z M 63.109375 18.847656 "/>
<path style=" stroke:none;fill-rule:evenodd;fill:rgb(40.392157%,71.372549%,93.333333%);fill-opacity:1;" d="M 61.976562 14.785156 C 63.246094 14.546875 64 15.03125 64.242188 16.25 C 64.058594 17.613281 63.304688 18.066406 61.976562 17.605469 C 61.082031 16.664062 61.082031 15.722656 61.976562 14.785156 Z M 61.976562 14.785156 "/>
<path style=" stroke:none;fill-rule:evenodd;fill:rgb(29.803922%,62.352941%,80.784314%);fill-opacity:1;" d="M 33.878906 6.429688 C 34.066406 8.347656 34.179688 10.304688 34.21875 12.296875 C 34.3125 11.316406 34.464844 11.242188 34.671875 12.070312 C 34.722656 11.792969 34.835938 11.566406 35.011719 11.394531 C 35.011719 11.699219 35.011719 11.996094 35.011719 12.296875 C 37.429688 12.546875 39.617188 13.378906 41.582031 14.785156 C 42.027344 14.117188 42.40625 13.445312 42.714844 12.75 C 42.871094 13.128906 43.171875 13.28125 43.621094 13.199219 C 43.277344 14.082031 42.898438 14.941406 42.488281 15.800781 C 43.492188 15.953125 44.398438 16.332031 45.207031 16.929688 C 38.257812 17.074219 31.308594 17.074219 24.359375 16.929688 C 24.980469 16.234375 25.660156 15.632812 26.398438 15.121094 C 25.890625 13.679688 25.132812 12.441406 24.132812 11.394531 C 24.816406 11.695312 25.421875 11.695312 25.945312 11.394531 C 26.304688 12.546875 26.832031 13.601562 27.53125 14.558594 C 29.46875 13.308594 31.582031 12.5625 33.878906 12.296875 C 33.878906 10.34375 33.878906 8.386719 33.878906 6.429688 Z M 33.878906 6.429688 "/>
<path style=" stroke:none;fill-rule:evenodd;fill:rgb(98.039216%,98.431373%,98.431373%);fill-opacity:1;" d="M 35.011719 13.425781 C 37.289062 13.621094 39.328125 14.410156 41.128906 15.800781 C 39.089844 15.914062 37.050781 15.945312 35.011719 15.914062 C 35.011719 15.082031 35.011719 14.253906 35.011719 13.425781 Z M 35.011719 13.425781 "/>
<path style=" stroke:none;fill-rule:evenodd;fill:rgb(98.823529%,98.823529%,98.431373%);fill-opacity:1;" d="M 32.746094 13.425781 C 33.121094 13.425781 33.5 13.425781 33.878906 13.425781 C 33.878906 14.253906 33.878906 15.082031 33.878906 15.914062 C 26.421875 16.640625 26.042969 15.8125 32.746094 13.425781 Z M 32.746094 13.425781 "/>
<path style=" stroke:none;fill-rule:evenodd;fill:rgb(21.960784%,54.509804%,75.686275%);fill-opacity:1;" d="M 8.269531 17.714844 C 7.949219 17.503906 7.570312 17.425781 7.136719 17.492188 C 7.914062 15.691406 7.308594 14.824219 5.324219 14.894531 C 4.503906 15.382812 4.238281 16.097656 4.53125 17.042969 C 4.84375 17.3125 5.109375 17.613281 5.324219 17.941406 C 4.894531 17.820312 4.515625 17.96875 4.191406 18.394531 C 3.347656 17.515625 3.082031 16.464844 3.398438 15.238281 C 4.152344 13.785156 5.324219 13.300781 6.910156 13.761719 C 7.863281 14.078125 8.46875 14.714844 8.722656 15.6875 C 9.847656 15.910156 10.980469 15.984375 12.125 15.914062 C 12.949219 13.167969 14.6875 12.378906 17.335938 13.539062 C 18.242188 14.1875 18.773438 15.050781 18.921875 16.136719 C 19.90625 16.097656 20.886719 16.136719 21.867188 16.25 C 22.09375 16.476562 22.320312 16.703125 22.546875 16.929688 C 20.96875 17.476562 19.984375 18.566406 19.601562 20.199219 C 19.488281 19.101562 19.863281 18.164062 20.734375 17.378906 C 20.128906 17.230469 19.527344 17.230469 18.921875 17.378906 C 18.484375 17.980469 18.21875 18.621094 18.128906 19.296875 C 18.8125 20.128906 19.304688 21.035156 19.601562 22.003906 C 18.550781 21.597656 17.71875 20.886719 17.109375 19.859375 C 14.644531 20.328125 12.910156 19.425781 11.898438 17.152344 C 10.839844 17.003906 9.78125 17.003906 8.722656 17.152344 C 8.597656 17.378906 8.445312 17.566406 8.269531 17.714844 Z M 8.269531 17.714844 "/>
<path style=" stroke:none;fill-rule:evenodd;fill:rgb(64.705882%,85.882353%,97.254902%);fill-opacity:1;" d="M 14.84375 14.105469 C 17.164062 14.195312 18.03125 15.320312 17.449219 17.492188 C 16.566406 18.628906 15.46875 18.886719 14.164062 18.28125 C 12.554688 16.601562 12.78125 15.214844 14.84375 14.105469 Z M 14.84375 14.105469 "/>
<path style=" stroke:none;fill-rule:evenodd;fill:rgb(47.843137%,75.686275%,95.686275%);fill-opacity:1;" d="M 7.136719 17.492188 C 6.589844 17.839844 5.988281 17.992188 5.324219 17.941406 C 5.109375 17.613281 4.84375 17.3125 4.53125 17.042969 C 4.238281 16.097656 4.503906 15.382812 5.324219 14.894531 C 7.308594 14.824219 7.914062 15.691406 7.136719 17.492188 Z M 7.136719 17.492188 "/>
<path style=" stroke:none;fill-rule:evenodd;fill:rgb(22.352941%,53.72549%,74.509804%);fill-opacity:1;" d="M 55.40625 13.878906 C 55.113281 14.117188 54.8125 14.34375 54.5 14.558594 C 53.695312 14.019531 52.863281 13.984375 52.007812 14.441406 C 50.625 15.636719 50.546875 16.875 51.78125 18.167969 C 51.40625 18.3125 51.105469 18.539062 50.875 18.847656 C 50.464844 18.484375 50.164062 18.035156 49.96875 17.492188 C 48.992188 17.300781 48.011719 17.191406 47.019531 17.152344 C 46.71875 16.851562 46.417969 16.550781 46.113281 16.25 C 47.332031 16.210938 48.539062 16.097656 49.742188 15.914062 C 50.371094 13.742188 51.808594 12.796875 54.046875 13.085938 C 54.617188 13.1875 55.070312 13.445312 55.40625 13.878906 Z M 55.40625 13.878906 "/>
<path style=" stroke:none;fill-rule:evenodd;fill:rgb(98.039216%,97.647059%,98.431373%);fill-opacity:1;" d="M 61.523438 18.847656 C 60.792969 20.425781 59.582031 20.90625 57.898438 20.3125 C 56.25 20.785156 55.417969 21.875 55.40625 23.582031 C 53.96875 23.582031 52.535156 23.582031 51.101562 23.582031 C 50.828125 23.007812 50.527344 22.441406 50.195312 21.890625 C 50.65625 21.160156 51.144531 20.449219 51.667969 19.746094 C 52.566406 19.753906 53.507812 19.714844 54.5 19.632812 C 55.734375 19.199219 56.414062 18.332031 56.539062 17.042969 C 57.757812 16.964844 58.964844 17.042969 60.164062 17.265625 C 60.464844 17.941406 60.917969 18.46875 61.523438 18.847656 Z M 61.523438 18.847656 "/>
<path style=" stroke:none;fill-rule:evenodd;fill:rgb(32.156863%,48.627451%,67.843137%);fill-opacity:1;" d="M 96.195312 17.265625 C 98.515625 16.914062 100.027344 17.816406 100.726562 19.972656 C 100.132812 20.035156 99.566406 20.1875 99.027344 20.425781 C 98.550781 19.078125 97.605469 18.589844 96.195312 18.957031 C 94.921875 20.0625 94.507812 21.453125 94.949219 23.132812 C 95.492188 24.882812 96.589844 25.371094 98.234375 24.601562 C 98.683594 24.117188 98.988281 23.550781 99.140625 22.910156 C 99.71875 23.03125 100.25 23.257812 100.726562 23.582031 C 99.789062 26.195312 97.976562 27.0625 95.289062 26.179688 C 93.28125 24.769531 92.5625 22.847656 93.136719 20.425781 C 93.601562 18.792969 94.621094 17.742188 96.195312 17.265625 Z M 96.195312 17.265625 "/>
<path style=" stroke:none;fill-rule:evenodd;fill:rgb(32.156863%,48.627451%,67.843137%);fill-opacity:1;" d="M 105.257812 17.265625 C 109.402344 17.0625 111.25 19.019531 110.8125 23.132812 C 109.890625 26.316406 107.816406 27.410156 104.578125 26.40625 C 102.785156 25.5 101.953125 24.035156 102.085938 22.003906 C 101.96875 19.601562 103.023438 18.023438 105.257812 17.265625 Z M 105.257812 17.265625 "/>
<path style=" stroke:none;fill-rule:evenodd;fill:rgb(31.764706%,48.235294%,67.843137%);fill-opacity:1;" d="M 79.878906 17.492188 C 80.484375 17.492188 81.085938 17.492188 81.691406 17.492188 C 82.757812 20.445312 83.890625 23.378906 85.089844 26.292969 C 84.429688 26.515625 83.746094 26.585938 83.050781 26.519531 C 83.113281 24.832031 82.320312 24.15625 80.671875 24.488281 C 80.105469 24.527344 79.539062 24.5625 78.972656 24.601562 C 78.648438 25.207031 78.421875 25.847656 78.292969 26.519531 C 77.609375 26.558594 76.929688 26.519531 76.253906 26.40625 C 77.496094 23.441406 78.703125 20.46875 79.878906 17.492188 Z M 79.878906 17.492188 "/>
<path style=" stroke:none;fill-rule:evenodd;fill:rgb(33.72549%,47.45098%,67.058824%);fill-opacity:1;" d="M 85.996094 17.492188 C 86.601562 17.492188 87.207031 17.492188 87.8125 17.492188 C 87.8125 20.5 87.8125 23.503906 87.8125 26.519531 C 87.207031 26.519531 86.601562 26.519531 85.996094 26.519531 C 85.996094 23.503906 85.996094 20.5 85.996094 17.492188 Z M 85.996094 17.492188 "/>
<path style=" stroke:none;fill-rule:evenodd;fill:rgb(34.117647%,49.411765%,68.627451%);fill-opacity:1;" d="M 112.285156 17.492188 C 113.078125 17.375 113.796875 17.523438 114.4375 17.941406 C 115.496094 19.746094 116.550781 21.554688 117.609375 23.359375 C 117.722656 21.402344 117.761719 19.449219 117.722656 17.492188 C 118.328125 17.492188 118.929688 17.492188 119.535156 17.492188 C 119.535156 20.5 119.535156 23.503906 119.535156 26.519531 C 118.839844 26.585938 118.160156 26.515625 117.496094 26.292969 C 116.355469 24.519531 115.261719 22.714844 114.210938 20.878906 C 114.097656 22.753906 114.058594 24.636719 114.097656 26.519531 C 113.492188 26.519531 112.890625 26.519531 112.285156 26.519531 C 112.285156 23.503906 112.285156 20.5 112.285156 17.492188 Z M 112.285156 17.492188 "/>
<path style=" stroke:none;fill-rule:evenodd;fill:rgb(31.764706%,49.411765%,68.627451%);fill-opacity:1;" d="M 120.894531 17.492188 C 123.386719 17.492188 125.878906 17.492188 128.375 17.492188 C 128.375 18.015625 128.375 18.542969 128.375 19.070312 C 127.46875 19.070312 126.5625 19.070312 125.652344 19.070312 C 125.652344 21.554688 125.652344 24.035156 125.652344 26.519531 C 125.050781 26.519531 124.445312 26.519531 123.839844 26.519531 C 123.839844 24.035156 123.839844 21.554688 123.839844 19.070312 C 122.859375 19.070312 121.878906 19.070312 120.894531 19.070312 C 120.894531 18.542969 120.894531 18.015625 120.894531 17.492188 Z M 120.894531 17.492188 "/>
<path style=" stroke:none;fill-rule:evenodd;fill:rgb(31.764706%,47.45098%,67.058824%);fill-opacity:1;" d="M 129.28125 17.492188 C 131.546875 17.492188 133.8125 17.492188 136.078125 17.492188 C 136.078125 18.015625 136.078125 18.542969 136.078125 19.070312 C 134.417969 19.070312 132.753906 19.070312 131.09375 19.070312 C 131.09375 19.746094 131.09375 20.425781 131.09375 21.105469 C 132.605469 21.105469 134.113281 21.105469 135.625 21.105469 C 135.625 21.625 135.625 22.152344 135.625 22.683594 C 134.113281 22.683594 132.605469 22.683594 131.09375 22.683594 C 131.09375 23.433594 131.09375 24.183594 131.09375 24.9375 C 132.753906 24.9375 134.417969 24.9375 136.078125 24.9375 C 136.078125 25.460938 136.078125 25.992188 136.078125 26.519531 C 133.8125 26.519531 131.546875 26.519531 129.28125 26.519531 C 129.28125 23.503906 129.28125 20.5 129.28125 17.492188 Z M 129.28125 17.492188 "/>
<path style=" stroke:none;fill-rule:evenodd;fill:rgb(34.117647%,49.411765%,68.627451%);fill-opacity:1;" d="M 137.664062 17.492188 C 138.460938 17.375 139.175781 17.523438 139.816406 17.941406 C 140.875 19.746094 141.933594 21.554688 142.988281 23.359375 C 143.101562 21.402344 143.140625 19.449219 143.101562 17.492188 C 143.707031 17.492188 144.3125 17.492188 144.914062 17.492188 C 144.914062 20.5 144.914062 23.503906 144.914062 26.519531 C 144.21875 26.585938 143.539062 26.515625 142.875 26.292969 C 141.734375 24.519531 140.640625 22.714844 139.589844 20.878906 C 139.476562 22.753906 139.441406 24.636719 139.476562 26.519531 C 138.871094 26.519531 138.269531 26.519531 137.664062 26.519531 C 137.664062 23.503906 137.664062 20.5 137.664062 17.492188 Z M 137.664062 17.492188 "/>
<path style=" stroke:none;fill-rule:evenodd;fill:rgb(31.764706%,49.411765%,68.627451%);fill-opacity:1;" d="M 146.277344 17.492188 C 148.769531 17.492188 151.261719 17.492188 153.753906 17.492188 C 153.753906 18.015625 153.753906 18.542969 153.753906 19.070312 C 152.847656 19.070312 151.941406 19.070312 151.035156 19.070312 C 151.035156 21.554688 151.035156 24.035156 151.035156 26.519531 C 150.429688 26.519531 149.824219 26.519531 149.222656 26.519531 C 149.222656 24.035156 149.222656 21.554688 149.222656 19.070312 C 148.238281 19.070312 147.257812 19.070312 146.277344 19.070312 C 146.277344 18.542969 146.277344 18.015625 146.277344 17.492188 Z M 146.277344 17.492188 "/>
<path style=" stroke:none;fill-rule:evenodd;fill:rgb(36.078431%,69.803922%,86.666667%);fill-opacity:1;" d="M 47.472656 38.480469 C 47.472656 33.511719 47.472656 28.550781 47.472656 23.582031 C 47.472656 23.054688 47.472656 22.53125 47.472656 22.003906 C 46.417969 22.003906 45.359375 22.003906 44.300781 22.003906 C 43.019531 21.699219 41.734375 21.699219 40.449219 22.003906 C 33.953125 21.785156 27.457031 21.785156 20.960938 22.003906 C 20.605469 20.425781 21.058594 19.179688 22.320312 18.28125 C 30.347656 18.058594 38.355469 18.132812 46.339844 18.507812 C 46.949219 18.921875 47.363281 19.484375 47.585938 20.199219 C 47.777344 26.332031 47.738281 32.425781 47.472656 38.480469 Z M 47.472656 38.480469 "/>
<path style=" stroke:none;fill-rule:evenodd;fill:rgb(98.039216%,98.431373%,98.431373%);fill-opacity:1;" d="M 105.484375 18.847656 C 108.636719 18.941406 109.730469 20.523438 108.773438 23.582031 C 107.804688 25.25 106.484375 25.585938 104.804688 24.601562 C 103.941406 23.421875 103.675781 22.109375 104.011719 20.652344 C 104.308594 19.871094 104.800781 19.269531 105.484375 18.847656 Z M 105.484375 18.847656 "/>
<path style=" stroke:none;fill-rule:evenodd;fill:rgb(12.54902%,40.392157%,61.960784%);fill-opacity:1;" d="M 63.109375 18.847656 C 62.34375 19.539062 61.742188 20.363281 61.296875 21.328125 C 62.855469 23.9375 62.25 25.855469 59.484375 27.082031 C 57.476562 27.398438 56.117188 26.609375 55.40625 24.710938 C 54.230469 24.410156 53.023438 24.410156 51.78125 24.710938 C 51.808594 24.851562 51.882812 24.925781 52.007812 24.9375 C 52.253906 25.75 52.402344 26.570312 52.460938 27.421875 C 52.242188 27.714844 51.9375 27.863281 51.554688 27.871094 C 51.394531 26.867188 51.132812 25.890625 50.761719 24.9375 C 50.144531 24.726562 49.503906 24.648438 48.835938 24.710938 C 48.835938 24.335938 48.835938 23.957031 48.835938 23.582031 C 49.136719 23.582031 49.4375 23.582031 49.742188 23.582031 C 50.195312 23.882812 50.648438 23.882812 51.101562 23.582031 C 52.535156 23.582031 53.96875 23.582031 55.40625 23.582031 C 55.417969 21.875 56.25 20.785156 57.898438 20.3125 C 59.582031 20.90625 60.792969 20.425781 61.523438 18.847656 C 62.0625 18.238281 62.742188 17.9375 63.5625 17.941406 C 63.558594 18.324219 63.40625 18.628906 63.109375 18.847656 Z M 63.109375 18.847656 "/>
<path style=" stroke:none;fill-rule:evenodd;fill:rgb(96.078431%,96.470588%,96.078431%);fill-opacity:1;" d="M 80.558594 19.972656 C 81.074219 20.863281 81.527344 21.808594 81.917969 22.796875 C 81.167969 22.90625 80.410156 22.941406 79.652344 22.910156 C 79.863281 21.898438 80.167969 20.921875 80.558594 19.972656 Z M 80.558594 19.972656 "/>
<path style=" stroke:none;fill-rule:evenodd;fill:rgb(16.078431%,46.27451%,68.235294%);fill-opacity:1;" d="M 7.136719 17.492188 C 7.570312 17.425781 7.949219 17.503906 8.269531 17.714844 C 7.925781 18.09375 7.625 18.511719 7.363281 18.957031 C 7.777344 19.554688 8.230469 20.121094 8.722656 20.652344 C 11.222656 19.789062 12.882812 20.613281 13.710938 23.132812 C 13.359375 23.3125 12.984375 23.390625 12.578125 23.359375 C 12.085938 21.796875 11.027344 21.234375 9.402344 21.667969 C 9.066406 21.8125 8.765625 22.003906 8.496094 22.230469 C 8.691406 21.785156 8.804688 21.332031 8.835938 20.878906 C 8.609375 21.175781 8.382812 21.175781 8.15625 20.878906 C 8.074219 21.203125 7.882812 21.425781 7.589844 21.554688 C 7.21875 20.683594 6.6875 19.894531 6.003906 19.183594 C 5.308594 19.097656 4.707031 18.839844 4.191406 18.394531 C 4.515625 17.96875 4.894531 17.820312 5.324219 17.941406 C 5.988281 17.992188 6.589844 17.839844 7.136719 17.492188 Z M 7.136719 17.492188 "/>
<path style=" stroke:none;fill-rule:evenodd;fill:rgb(63.921569%,85.098039%,96.470588%);fill-opacity:1;" d="M 12.578125 23.359375 C 12.277344 25.824219 10.996094 26.542969 8.722656 25.5 C 7.910156 24.46875 7.835938 23.378906 8.496094 22.230469 C 8.765625 22.003906 9.066406 21.8125 9.402344 21.667969 C 11.027344 21.234375 12.085938 21.796875 12.578125 23.359375 Z M 12.578125 23.359375 "/>
<path style=" stroke:none;fill-rule:evenodd;fill:rgb(98.431373%,99.215686%,99.215686%);fill-opacity:1;" d="M 34.105469 23.359375 C 35.753906 27.601562 37.488281 31.8125 39.316406 35.996094 C 38.019531 36.285156 36.734375 36.285156 35.464844 35.996094 C 35.335938 35.324219 35.109375 34.683594 34.785156 34.078125 C 32.664062 33.890625 30.550781 33.925781 28.4375 34.191406 C 28.070312 34.847656 27.769531 35.523438 27.53125 36.222656 C 26.355469 36.296875 25.222656 36.214844 24.132812 35.996094 C 25.949219 31.554688 27.761719 27.117188 29.574219 22.683594 C 29.746094 22.53125 29.898438 22.34375 30.027344 22.117188 C 31.160156 21.964844 32.292969 21.964844 33.425781 22.117188 C 33.589844 22.582031 33.816406 22.992188 34.105469 23.359375 Z M 34.105469 23.359375 "/>
<path style=" stroke:none;fill-rule:evenodd;fill:rgb(96.470588%,97.254902%,98.039216%);fill-opacity:1;" d="M 44.300781 22.003906 C 44.300781 22.53125 44.300781 23.054688 44.300781 23.582031 C 44.300781 27.796875 44.300781 32.007812 44.300781 36.222656 C 43.09375 36.222656 41.882812 36.222656 40.675781 36.222656 C 40.675781 31.480469 40.675781 26.746094 40.675781 22.003906 C 41.882812 22.003906 43.09375 22.003906 44.300781 22.003906 Z M 44.300781 22.003906 "/>
<path style=" stroke:none;fill-rule:evenodd;fill:rgb(15.686275%,54.509804%,82.745098%);fill-opacity:1;" d="M 40.449219 22.003906 C 40.449219 22.53125 40.449219 23.054688 40.449219 23.582031 C 38.316406 23.652344 36.199219 23.578125 34.105469 23.359375 C 33.816406 22.992188 33.589844 22.582031 33.425781 22.117188 C 32.292969 21.964844 31.160156 21.964844 30.027344 22.117188 C 29.898438 22.34375 29.746094 22.53125 29.574219 22.683594 C 29.339844 22.945312 29.035156 23.136719 28.664062 23.246094 C 28.816406 23.320312 28.96875 23.394531 29.121094 23.472656 C 26.402344 23.582031 23.683594 23.621094 20.960938 23.582031 C 20.960938 23.054688 20.960938 22.53125 20.960938 22.003906 C 27.457031 21.785156 33.953125 21.785156 40.449219 22.003906 Z M 40.449219 22.003906 "/>
<path style=" stroke:none;fill-rule:evenodd;fill:rgb(13.333333%,54.117647%,83.529412%);fill-opacity:1;" d="M 44.300781 22.003906 C 45.359375 22.003906 46.417969 22.003906 47.472656 22.003906 C 47.472656 22.53125 47.472656 23.054688 47.472656 23.582031 C 46.417969 23.582031 45.359375 23.582031 44.300781 23.582031 C 44.300781 23.054688 44.300781 22.53125 44.300781 22.003906 Z M 44.300781 22.003906 "/>
<path style=" stroke:none;fill-rule:evenodd;fill:rgb(57.647059%,81.960784%,95.686275%);fill-opacity:1;" d="M 58.125 21.328125 C 60.71875 21.496094 61.550781 22.78125 60.617188 25.164062 C 58.480469 26.714844 57.046875 26.222656 56.3125 23.695312 C 56.464844 22.53125 57.066406 21.742188 58.125 21.328125 Z M 58.125 21.328125 "/>
<path style=" stroke:none;fill-rule:evenodd;fill:rgb(48.627451%,64.313725%,75.294118%);fill-opacity:1;" d="M 18.695312 23.359375 C 19.074219 23.359375 19.449219 23.359375 19.828125 23.359375 C 19.828125 23.808594 19.828125 24.261719 19.828125 24.710938 C 19.535156 24.765625 19.308594 24.691406 19.148438 24.488281 C 19.527344 24.332031 19.679688 24.03125 19.601562 23.582031 C 19.238281 23.640625 18.9375 23.570312 18.695312 23.359375 Z M 18.695312 23.359375 "/>
<path style=" stroke:none;fill-rule:evenodd;fill:rgb(53.72549%,68.235294%,78.823529%);fill-opacity:1;" d="M 55.40625 24.710938 C 54.226562 24.636719 53.09375 24.714844 52.007812 24.9375 C 51.882812 24.925781 51.808594 24.851562 51.78125 24.710938 C 53.023438 24.410156 54.230469 24.410156 55.40625 24.710938 Z M 55.40625 24.710938 "/>
<path style=" stroke:none;fill-rule:evenodd;fill:rgb(12.54902%,40%,61.960784%);fill-opacity:1;" d="M 8.496094 22.230469 C 7.835938 23.378906 7.910156 24.46875 8.722656 25.5 C 10.996094 26.542969 12.277344 25.824219 12.578125 23.359375 C 12.984375 23.390625 13.359375 23.3125 13.710938 23.132812 C 15.363281 23.332031 17.027344 23.410156 18.695312 23.359375 C 18.9375 23.570312 19.238281 23.640625 19.601562 23.582031 C 19.679688 24.03125 19.527344 24.332031 19.148438 24.488281 C 18.742188 24.417969 18.367188 24.5 18.015625 24.710938 C 17.785156 25.339844 17.558594 25.941406 17.335938 26.519531 C 17.363281 26.320312 17.289062 26.171875 17.109375 26.066406 C 16.902344 26.210938 16.675781 26.285156 16.429688 26.292969 C 16.625 25.703125 16.777344 25.097656 16.882812 24.488281 C 15.8125 24.410156 14.757812 24.488281 13.710938 24.710938 C 12.542969 27.117188 10.730469 27.757812 8.269531 26.632812 C 6.75 25.097656 6.523438 23.40625 7.589844 21.554688 C 7.882812 21.425781 8.074219 21.203125 8.15625 20.878906 C 8.382812 21.175781 8.609375 21.175781 8.835938 20.878906 C 8.804688 21.332031 8.691406 21.785156 8.496094 22.230469 Z M 8.496094 22.230469 "/>
<path style=" stroke:none;fill-rule:evenodd;fill:rgb(5.098039%,41.176471%,65.882353%);fill-opacity:1;" d="M 29.574219 22.683594 C 27.761719 27.117188 25.949219 31.554688 24.132812 35.996094 C 23.945312 36.074219 23.867188 36.222656 23.90625 36.445312 C 22.996094 36.035156 22.015625 35.882812 20.960938 35.996094 C 20.960938 31.859375 20.960938 27.71875 20.960938 23.582031 C 23.683594 23.621094 26.402344 23.582031 29.121094 23.472656 C 28.96875 23.394531 28.816406 23.320312 28.664062 23.246094 C 29.035156 23.136719 29.339844 22.945312 29.574219 22.683594 Z M 29.574219 22.683594 "/>
<path style=" stroke:none;fill-rule:evenodd;fill:rgb(7.058824%,40%,64.313725%);fill-opacity:1;" d="M 31.613281 25.164062 C 32.40625 27.078125 33.160156 29.035156 33.878906 31.027344 C 32.371094 31.292969 30.863281 31.328125 29.347656 31.140625 C 30.195312 29.183594 30.953125 27.191406 31.613281 25.164062 Z M 31.613281 25.164062 "/>
<path style=" stroke:none;fill-rule:evenodd;fill:rgb(7.843137%,32.156863%,52.156863%);fill-opacity:1;" d="M 52.234375 31.707031 C 51.835938 31.875 51.457031 31.949219 51.101562 31.933594 C 51.273438 31.109375 51.425781 30.285156 51.554688 29.449219 C 50.722656 29.449219 49.890625 29.449219 49.0625 29.449219 C 49.0625 29.074219 49.0625 28.699219 49.0625 28.324219 C 50 28.453125 50.832031 28.304688 51.554688 27.871094 C 51.9375 27.863281 52.242188 27.714844 52.460938 27.421875 C 52.460938 27.71875 52.460938 28.023438 52.460938 28.324219 C 55.707031 28.363281 58.957031 28.324219 62.203125 28.210938 C 63.007812 26.320312 64.367188 25.792969 66.28125 26.632812 C 67.859375 28.285156 67.785156 29.863281 66.054688 31.367188 C 64.253906 32.007812 62.96875 31.445312 62.203125 29.675781 C 59.035156 29.449219 55.863281 29.375 52.6875 29.449219 C 52.621094 30.226562 52.46875 30.980469 52.234375 31.707031 Z M 52.234375 31.707031 "/>
<path style=" stroke:none;fill-rule:evenodd;fill:rgb(30.588235%,63.921569%,89.803922%);fill-opacity:1;" d="M 64.015625 27.421875 C 65.351562 27.175781 66.105469 27.703125 66.28125 29 C 66.039062 30.261719 65.28125 30.675781 64.015625 30.242188 C 63.117188 29.285156 63.117188 28.347656 64.015625 27.421875 Z M 64.015625 27.421875 "/>
<path style=" stroke:none;fill-rule:evenodd;fill:rgb(7.843137%,29.411765%,49.019608%);fill-opacity:1;" d="M 17.335938 26.519531 C 17.335938 27.121094 17.335938 27.71875 17.335938 28.324219 C 18.089844 28.324219 18.847656 28.324219 19.601562 28.324219 C 19.601562 28.699219 19.601562 29.074219 19.601562 29.449219 C 18.847656 29.449219 18.089844 29.449219 17.335938 29.449219 C 17.273438 30.710938 17.5 31.910156 18.015625 33.0625 C 18.523438 33.28125 19.050781 33.359375 19.601562 33.289062 C 19.601562 33.664062 19.601562 34.042969 19.601562 34.417969 C 19.214844 34.378906 18.839844 34.417969 18.46875 34.527344 C 18.761719 34.847656 19.023438 35.183594 19.261719 35.542969 C 19.335938 35.46875 19.414062 35.394531 19.488281 35.316406 C 19.640625 35.921875 19.640625 36.523438 19.488281 37.121094 C 18.859375 37.636719 18.371094 38.234375 18.015625 38.929688 C 18.148438 39.363281 18.375 39.738281 18.695312 40.058594 C 18.226562 40.144531 17.851562 40.21875 17.5625 40.285156 C 16.238281 39.089844 14.917969 39.089844 13.597656 40.285156 C 13.3125 40.851562 13.199219 41.453125 13.257812 42.085938 C 13.078125 41.839844 12.964844 41.539062 12.917969 41.183594 C 12.839844 41.335938 12.765625 41.488281 12.691406 41.636719 C 12.605469 41.3125 12.414062 41.085938 12.125 40.957031 C 12.367188 39.402344 13.273438 38.460938 14.84375 38.140625 C 15.527344 38.113281 16.207031 38.113281 16.882812 38.140625 C 17.453125 37.609375 17.980469 37.046875 18.46875 36.445312 C 18.089844 35.847656 17.714844 35.242188 17.335938 34.640625 C 16.136719 34.417969 14.925781 34.34375 13.710938 34.417969 C 13.628906 36.085938 12.800781 37.140625 11.21875 37.574219 C 11.140625 37.273438 11.066406 36.976562 10.992188 36.671875 C 12.5 35.851562 12.914062 34.644531 12.238281 33.0625 C 10.097656 31.289062 8.699219 31.738281 8.042969 34.417969 C 8.03125 35.007812 8.183594 35.53125 8.496094 35.996094 C 8.125 36.140625 7.824219 36.367188 7.589844 36.671875 C 6.300781 34.855469 6.453125 33.164062 8.042969 31.59375 C 10.328125 30.320312 12.140625 30.808594 13.484375 33.0625 C 14.617188 33.363281 15.75 33.363281 16.882812 33.0625 C 16.421875 31.902344 16.195312 30.699219 16.203125 29.449219 C 13.101562 29.375 10.003906 29.449219 6.910156 29.675781 C 5.699219 31.683594 4.148438 31.984375 2.265625 30.578125 C 1.070312 28.226562 1.75 26.792969 4.304688 26.292969 C 5.570312 26.308594 6.441406 26.910156 6.910156 28.097656 C 10.003906 28.324219 13.101562 28.398438 16.203125 28.324219 C 16.203125 27.636719 16.28125 26.957031 16.429688 26.292969 C 16.675781 26.285156 16.902344 26.210938 17.109375 26.066406 C 17.289062 26.171875 17.363281 26.320312 17.335938 26.519531 Z M 17.335938 26.519531 "/>
<path style=" stroke:none;fill-rule:evenodd;fill:rgb(30.980392%,64.313725%,92.54902%);fill-opacity:1;" d="M 3.511719 27.421875 C 5.605469 27.285156 6.210938 28.152344 5.324219 30.015625 C 3.933594 30.675781 3.101562 30.261719 2.832031 28.773438 C 2.863281 28.21875 3.089844 27.769531 3.511719 27.421875 Z M 3.511719 27.421875 "/>
<path style=" stroke:none;fill-rule:evenodd;fill:rgb(9.019608%,44.705882%,69.019608%);fill-opacity:1;" d="M 44.300781 22.003906 C 43.09375 22.003906 41.882812 22.003906 40.675781 22.003906 C 40.675781 26.746094 40.675781 31.480469 40.675781 36.222656 C 41.882812 36.222656 43.09375 36.222656 44.300781 36.222656 C 44.300781 32.007812 44.300781 27.796875 44.300781 23.582031 C 45.359375 23.582031 46.417969 23.582031 47.472656 23.582031 C 47.472656 28.550781 47.472656 33.511719 47.472656 38.480469 C 47.328125 39.265625 46.875 39.828125 46.113281 40.171875 C 38.410156 40.320312 30.707031 40.320312 23 40.171875 C 22.09375 40.023438 21.453125 39.53125 21.074219 38.703125 C 20.960938 37.800781 20.921875 36.902344 20.960938 35.996094 C 22.015625 35.882812 22.996094 36.035156 23.90625 36.445312 C 25.117188 36.445312 26.324219 36.445312 27.53125 36.445312 C 27.710938 36.382812 27.863281 36.269531 27.984375 36.109375 C 30.476562 35.996094 32.96875 35.960938 35.464844 35.996094 C 36.734375 36.285156 38.019531 36.285156 39.316406 35.996094 C 37.488281 31.8125 35.753906 27.601562 34.105469 23.359375 C 36.199219 23.578125 38.316406 23.652344 40.449219 23.582031 C 40.449219 23.054688 40.449219 22.53125 40.449219 22.003906 C 41.734375 21.699219 43.019531 21.699219 44.300781 22.003906 Z M 44.300781 22.003906 "/>
<path style=" stroke:none;fill-rule:evenodd;fill:rgb(32.156863%,48.627451%,67.843137%);fill-opacity:1;" d="M 76.480469 31.933594 C 78.425781 31.550781 80.050781 32.074219 81.351562 33.511719 C 81.496094 33.765625 81.609375 34.027344 81.691406 34.304688 C 81.265625 34.734375 80.734375 34.996094 80.105469 35.089844 C 79.097656 33.4375 77.738281 33.101562 76.027344 34.078125 C 74.921875 35.636719 74.847656 37.257812 75.800781 38.929688 C 77.125 40.058594 78.519531 40.136719 79.992188 39.152344 C 80.105469 38.789062 80.140625 38.414062 80.105469 38.027344 C 79.351562 38.027344 78.59375 38.027344 77.839844 38.027344 C 77.839844 37.5 77.839844 36.976562 77.839844 36.445312 C 79.199219 36.445312 80.558594 36.445312 81.917969 36.445312 C 81.957031 37.652344 81.917969 38.859375 81.804688 40.058594 C 79.691406 41.605469 77.464844 41.789062 75.121094 40.621094 C 73.164062 38.582031 72.824219 36.289062 74.101562 33.738281 C 74.773438 32.9375 75.566406 32.339844 76.480469 31.933594 Z M 76.480469 31.933594 "/>
<path style=" stroke:none;fill-rule:evenodd;fill:rgb(32.156863%,48.627451%,67.843137%);fill-opacity:1;" d="M 138.117188 31.933594 C 142.257812 31.730469 144.109375 33.6875 143.667969 37.800781 C 142.75 40.988281 140.671875 42.078125 137.4375 41.070312 C 135.640625 40.167969 134.8125 38.699219 134.945312 36.671875 C 134.824219 34.269531 135.882812 32.691406 138.117188 31.933594 Z M 138.117188 31.933594 "/>
<path style=" stroke:none;fill-rule:evenodd;fill:rgb(31.764706%,47.45098%,67.058824%);fill-opacity:1;" d="M 83.503906 32.160156 C 85.769531 32.160156 88.039062 32.160156 90.304688 32.160156 C 90.304688 32.683594 90.304688 33.210938 90.304688 33.738281 C 88.640625 33.738281 86.980469 33.738281 85.316406 33.738281 C 85.316406 34.417969 85.316406 35.089844 85.316406 35.769531 C 86.828125 35.769531 88.339844 35.769531 89.851562 35.769531 C 89.851562 36.300781 89.851562 36.824219 89.851562 37.347656 C 88.339844 37.347656 86.828125 37.347656 85.316406 37.347656 C 85.316406 38.105469 85.316406 38.855469 85.316406 39.605469 C 86.980469 39.605469 88.640625 39.605469 90.304688 39.605469 C 90.304688 40.136719 90.304688 40.660156 90.304688 41.183594 C 88.039062 41.183594 85.769531 41.183594 83.503906 41.183594 C 83.503906 38.179688 83.503906 35.171875 83.503906 32.160156 Z M 83.503906 32.160156 "/>
<path style=" stroke:none;fill-rule:evenodd;fill:rgb(34.117647%,49.411765%,68.627451%);fill-opacity:1;" d="M 91.890625 32.160156 C 92.683594 32.046875 93.402344 32.195312 94.042969 32.613281 C 95.101562 34.417969 96.15625 36.222656 97.214844 38.027344 C 97.328125 36.074219 97.367188 34.117188 97.328125 32.160156 C 97.933594 32.160156 98.535156 32.160156 99.140625 32.160156 C 99.140625 35.171875 99.140625 38.179688 99.140625 41.183594 C 98.445312 41.261719 97.765625 41.179688 97.101562 40.957031 C 95.960938 39.183594 94.867188 37.378906 93.816406 35.542969 C 93.703125 37.425781 93.664062 39.304688 93.703125 41.183594 C 93.097656 41.183594 92.492188 41.183594 91.890625 41.183594 C 91.890625 38.179688 91.890625 35.171875 91.890625 32.160156 Z M 91.890625 32.160156 "/>
<path style=" stroke:none;fill-rule:evenodd;fill:rgb(31.764706%,47.45098%,67.058824%);fill-opacity:1;" d="M 100.953125 32.160156 C 103.21875 32.160156 105.484375 32.160156 107.753906 32.160156 C 107.753906 32.683594 107.753906 33.210938 107.753906 33.738281 C 106.089844 33.738281 104.429688 33.738281 102.765625 33.738281 C 102.765625 34.417969 102.765625 35.089844 102.765625 35.769531 C 104.277344 35.769531 105.789062 35.769531 107.300781 35.769531 C 107.300781 36.300781 107.300781 36.824219 107.300781 37.347656 C 105.789062 37.347656 104.277344 37.347656 102.765625 37.347656 C 102.765625 38.105469 102.765625 38.855469 102.765625 39.605469 C 104.429688 39.605469 106.089844 39.605469 107.753906 39.605469 C 107.753906 40.136719 107.753906 40.660156 107.753906 41.183594 C 105.484375 41.183594 103.21875 41.183594 100.953125 41.183594 C 100.953125 38.179688 100.953125 35.171875 100.953125 32.160156 Z M 100.953125 32.160156 "/>
<path style=" stroke:none;fill-rule:evenodd;fill:rgb(31.764706%,47.843137%,67.843137%);fill-opacity:1;" d="M 109.339844 32.160156 C 111.152344 32.121094 112.964844 32.160156 114.777344 32.273438 C 116.058594 32.535156 116.738281 33.324219 116.816406 34.640625 C 116.664062 36.035156 115.90625 36.898438 114.550781 37.234375 C 115.757812 38.238281 116.664062 39.480469 117.269531 40.957031 C 116.601562 41.222656 115.921875 41.261719 115.230469 41.070312 C 114.476562 39.945312 113.71875 38.816406 112.964844 37.6875 C 112.394531 37.40625 111.789062 37.296875 111.152344 37.347656 C 111.152344 38.628906 111.152344 39.910156 111.152344 41.183594 C 110.546875 41.183594 109.941406 41.183594 109.339844 41.183594 C 109.339844 38.179688 109.339844 35.171875 109.339844 32.160156 Z M 109.339844 32.160156 "/>
<path style=" stroke:none;fill-rule:evenodd;fill:rgb(31.764706%,48.235294%,67.843137%);fill-opacity:1;" d="M 121.121094 32.160156 C 121.726562 32.160156 122.332031 32.160156 122.933594 32.160156 C 124 35.109375 125.132812 38.042969 126.335938 40.957031 C 125.671875 41.179688 124.992188 41.261719 124.292969 41.183594 C 124.355469 39.5 123.5625 38.820312 121.914062 39.152344 C 121.347656 39.191406 120.78125 39.230469 120.214844 39.265625 C 119.890625 39.875 119.664062 40.511719 119.535156 41.183594 C 118.851562 41.222656 118.171875 41.183594 117.496094 41.070312 C 118.738281 38.113281 119.945312 35.144531 121.121094 32.160156 Z M 121.121094 32.160156 "/>
<path style=" stroke:none;fill-rule:evenodd;fill:rgb(31.764706%,49.411765%,68.627451%);fill-opacity:1;" d="M 126.789062 32.160156 C 129.28125 32.160156 131.773438 32.160156 134.265625 32.160156 C 134.265625 32.683594 134.265625 33.210938 134.265625 33.738281 C 133.359375 33.738281 132.453125 33.738281 131.546875 33.738281 C 131.546875 36.222656 131.546875 38.703125 131.546875 41.183594 C 130.941406 41.183594 130.335938 41.183594 129.734375 41.183594 C 129.734375 38.703125 129.734375 36.222656 129.734375 33.738281 C 128.75 33.738281 127.769531 33.738281 126.789062 33.738281 C 126.789062 33.210938 126.789062 32.683594 126.789062 32.160156 Z M 126.789062 32.160156 "/>
<path style=" stroke:none;fill-rule:evenodd;fill:rgb(31.764706%,47.843137%,67.843137%);fill-opacity:1;" d="M 145.140625 32.160156 C 146.957031 32.121094 148.769531 32.160156 150.582031 32.273438 C 151.863281 32.535156 152.542969 33.324219 152.621094 34.640625 C 152.464844 36.035156 151.710938 36.898438 150.355469 37.234375 C 150.597656 37.453125 150.863281 37.644531 151.148438 37.800781 C 151.835938 38.910156 152.554688 40 153.300781 41.070312 C 152.546875 41.222656 151.789062 41.222656 151.035156 41.070312 C 150.277344 39.945312 149.523438 38.816406 148.769531 37.6875 C 148.199219 37.40625 147.59375 37.296875 146.957031 37.347656 C 146.957031 38.628906 146.957031 39.910156 146.957031 41.183594 C 146.351562 41.183594 145.746094 41.183594 145.140625 41.183594 C 145.140625 38.179688 145.140625 35.171875 145.140625 32.160156 Z M 145.140625 32.160156 "/>
<path style=" stroke:none;fill-rule:evenodd;fill:rgb(54.901961%,80.784314%,94.509804%);fill-opacity:1;" d="M 10.992188 36.671875 C 10.066406 36.761719 9.238281 36.535156 8.496094 35.996094 C 8.183594 35.53125 8.03125 35.007812 8.042969 34.417969 C 8.699219 31.738281 10.097656 31.289062 12.238281 33.0625 C 12.914062 34.644531 12.5 35.851562 10.992188 36.671875 Z M 10.992188 36.671875 "/>
<path style=" stroke:none;fill-rule:evenodd;fill:rgb(98.039216%,98.431373%,98.431373%);fill-opacity:1;" d="M 138.34375 33.511719 C 141.492188 33.609375 142.589844 35.1875 141.628906 38.253906 C 140.664062 39.917969 139.339844 40.257812 137.664062 39.265625 C 136.800781 38.097656 136.535156 36.777344 136.871094 35.316406 C 137.167969 34.539062 137.65625 33.933594 138.34375 33.511719 Z M 138.34375 33.511719 "/>
<path style=" stroke:none;fill-rule:evenodd;fill:rgb(98.039216%,98.823529%,98.431373%);fill-opacity:1;" d="M 111.152344 33.738281 C 112.210938 33.699219 113.269531 33.738281 114.324219 33.851562 C 114.929688 34.453125 114.929688 35.058594 114.324219 35.65625 C 113.269531 35.769531 112.210938 35.808594 111.152344 35.769531 C 111.152344 35.089844 111.152344 34.417969 111.152344 33.738281 Z M 111.152344 33.738281 "/>
<path style=" stroke:none;fill-rule:evenodd;fill:rgb(98.039216%,98.823529%,98.431373%);fill-opacity:1;" d="M 146.957031 33.738281 C 148.015625 33.699219 149.074219 33.738281 150.128906 33.851562 C 150.730469 34.453125 150.730469 35.058594 150.128906 35.65625 C 149.074219 35.769531 148.015625 35.808594 146.957031 35.769531 C 146.957031 35.089844 146.957031 34.417969 146.957031 33.738281 Z M 146.957031 33.738281 "/>
<path style=" stroke:none;fill-rule:evenodd;fill:rgb(3.921569%,37.647059%,61.960784%);fill-opacity:1;" d="M 35.464844 35.996094 C 32.96875 35.960938 30.476562 35.996094 27.984375 36.109375 C 27.863281 36.269531 27.710938 36.382812 27.53125 36.445312 C 27.53125 36.375 27.53125 36.300781 27.53125 36.222656 C 27.769531 35.523438 28.070312 34.847656 28.4375 34.191406 C 30.550781 33.925781 32.664062 33.890625 34.785156 34.078125 C 35.109375 34.683594 35.335938 35.324219 35.464844 35.996094 Z M 35.464844 35.996094 "/>
<path style=" stroke:none;fill-rule:evenodd;fill:rgb(96.862745%,97.647059%,98.039216%);fill-opacity:1;" d="M 12.125 40.957031 C 10.980469 41.035156 9.847656 40.957031 8.722656 40.734375 C 8.390625 39.992188 7.863281 39.425781 7.136719 39.042969 C 7.515625 38.515625 7.894531 37.992188 8.269531 37.460938 C 8.933594 37.558594 9.613281 37.671875 10.3125 37.800781 C 10.660156 37.800781 10.964844 37.726562 11.21875 37.574219 C 12.800781 37.140625 13.628906 36.085938 13.710938 34.417969 C 14.925781 34.34375 16.136719 34.417969 17.335938 34.640625 C 17.714844 35.242188 18.089844 35.847656 18.46875 36.445312 C 17.980469 37.046875 17.453125 37.609375 16.882812 38.140625 C 16.207031 38.113281 15.527344 38.113281 14.84375 38.140625 C 13.273438 38.460938 12.367188 39.402344 12.125 40.957031 Z M 12.125 40.957031 "/>
<path style=" stroke:none;fill-rule:evenodd;fill:rgb(98.039216%,98.823529%,98.823529%);fill-opacity:1;" d="M 61.75 38.929688 C 61.039062 39.453125 60.433594 40.089844 59.9375 40.847656 C 58.808594 40.957031 57.675781 40.996094 56.539062 40.957031 C 56.496094 40.351562 56.269531 39.820312 55.859375 39.378906 C 55.460938 38.992188 55.007812 38.65625 54.5 38.367188 C 53.574219 38.246094 52.667969 38.246094 51.78125 38.367188 C 51.171875 37.785156 50.640625 37.148438 50.195312 36.445312 C 50.601562 35.828125 50.976562 35.1875 51.328125 34.527344 C 52.683594 34.417969 54.042969 34.378906 55.40625 34.417969 C 55.816406 37.289062 57.402344 38.269531 60.164062 37.347656 C 60.746094 37.839844 61.273438 38.367188 61.75 38.929688 Z M 61.75 38.929688 "/>
<path style=" stroke:none;fill-rule:evenodd;fill:rgb(96.078431%,96.470588%,96.078431%);fill-opacity:1;" d="M 121.800781 34.640625 C 122.316406 35.535156 122.769531 36.472656 123.160156 37.460938 C 122.410156 37.574219 121.65625 37.613281 120.894531 37.574219 C 121.105469 36.566406 121.410156 35.589844 121.800781 34.640625 Z M 121.800781 34.640625 "/>
<path style=" stroke:none;fill-rule:evenodd;fill:rgb(51.764706%,61.960784%,70.196078%);fill-opacity:1;" d="M 24.132812 35.996094 C 25.222656 36.214844 26.355469 36.296875 27.53125 36.222656 C 27.53125 36.300781 27.53125 36.375 27.53125 36.445312 C 26.324219 36.445312 25.117188 36.445312 23.90625 36.445312 C 23.867188 36.222656 23.945312 36.074219 24.132812 35.996094 Z M 24.132812 35.996094 "/>
<path style=" stroke:none;fill-rule:evenodd;fill:rgb(7.058824%,25.882353%,43.921569%);fill-opacity:1;" d="M 62.65625 38.480469 C 62.355469 38.628906 62.054688 38.777344 61.75 38.929688 C 61.273438 38.367188 60.746094 37.839844 60.164062 37.347656 C 57.402344 38.269531 55.816406 37.289062 55.40625 34.417969 C 54.042969 34.378906 52.683594 34.417969 51.328125 34.527344 C 50.976562 35.1875 50.601562 35.828125 50.195312 36.445312 C 50.640625 37.148438 51.171875 37.785156 51.78125 38.367188 C 52.667969 38.246094 53.574219 38.246094 54.5 38.367188 C 55.007812 38.65625 55.460938 38.992188 55.859375 39.378906 C 55.742188 39.769531 55.515625 40.066406 55.179688 40.285156 C 53.679688 38.964844 52.355469 39.117188 51.214844 40.734375 C 50.949219 41.820312 51.140625 42.796875 51.78125 43.667969 C 51.613281 43.640625 51.460938 43.675781 51.328125 43.785156 C 51.597656 43.929688 51.597656 44.039062 51.328125 44.121094 C 51.117188 43.980469 50.890625 43.902344 50.648438 43.894531 C 50.109375 43.339844 49.882812 42.664062 49.96875 41.863281 C 48.832031 41.902344 47.699219 41.863281 46.566406 41.75 C 47.125 41.421875 47.617188 41.007812 48.039062 40.507812 C 48.660156 40.761719 49.304688 40.796875 49.96875 40.621094 C 50.242188 40.113281 50.542969 39.625 50.875 39.152344 C 50.511719 38.457031 50.019531 37.855469 49.402344 37.347656 C 49.410156 38.433594 49.105469 39.410156 48.496094 40.285156 C 48.894531 38.832031 49.121094 37.324219 49.175781 35.769531 C 50.285156 34.878906 50.171875 34.425781 48.835938 34.417969 C 48.835938 34.042969 48.835938 33.664062 48.835938 33.289062 C 49.441406 33.324219 50.046875 33.285156 50.648438 33.175781 C 50.867188 32.789062 51.015625 32.371094 51.101562 31.933594 C 51.457031 31.949219 51.835938 31.875 52.234375 31.707031 C 52.15625 32.160156 52.082031 32.613281 52.007812 33.0625 C 51.882812 33.074219 51.808594 33.148438 51.78125 33.289062 C 53.023438 33.589844 54.230469 33.589844 55.40625 33.289062 C 56.503906 30.746094 58.316406 30.105469 60.84375 31.367188 C 62.4375 33.019531 62.585938 34.792969 61.296875 36.671875 C 61.667969 37.339844 62.121094 37.945312 62.65625 38.480469 Z M 62.65625 38.480469 "/>
<path style=" stroke:none;fill-rule:evenodd;fill:rgb(50.588235%,78.039216%,92.941176%);fill-opacity:1;" d="M 57.671875 31.933594 C 60.152344 31.582031 61.246094 32.636719 60.957031 35.089844 C 59.707031 37 58.269531 37.152344 56.652344 35.542969 C 56.09375 34.085938 56.433594 32.886719 57.671875 31.933594 Z M 57.671875 31.933594 "/>
<path style=" stroke:none;fill-rule:evenodd;fill:rgb(42.745098%,55.294118%,65.490196%);fill-opacity:1;" d="M 52.007812 33.0625 C 53.09375 33.285156 54.226562 33.363281 55.40625 33.289062 C 54.230469 33.589844 53.023438 33.589844 51.78125 33.289062 C 51.808594 33.148438 51.882812 33.074219 52.007812 33.0625 Z M 52.007812 33.0625 "/>
<path style=" stroke:none;fill-rule:evenodd;fill:rgb(4.705882%,22.745098%,40%);fill-opacity:1;" d="M 8.496094 35.996094 C 9.238281 36.535156 10.066406 36.761719 10.992188 36.671875 C 11.066406 36.976562 11.140625 37.273438 11.21875 37.574219 C 10.964844 37.726562 10.660156 37.800781 10.3125 37.800781 C 9.613281 37.671875 8.933594 37.558594 8.269531 37.460938 C 7.894531 37.992188 7.515625 38.515625 7.136719 39.042969 C 7.863281 39.425781 8.390625 39.992188 8.722656 40.734375 C 9.847656 40.957031 10.980469 41.035156 12.125 40.957031 C 12.414062 41.085938 12.605469 41.3125 12.691406 41.636719 C 12.765625 41.488281 12.839844 41.335938 12.917969 41.183594 C 12.964844 41.539062 13.078125 41.839844 13.257812 42.085938 C 13.785156 43.832031 14.921875 44.394531 16.65625 43.785156 C 17.796875 42.867188 18.101562 41.699219 17.5625 40.285156 C 17.851562 40.21875 18.226562 40.144531 18.695312 40.058594 C 19.039062 40.496094 19.492188 40.613281 20.054688 40.394531 C 19.8125 40.007812 19.773438 39.589844 19.941406 39.152344 C 20.167969 39.605469 20.394531 40.058594 20.621094 40.507812 C 21.207031 40.898438 21.773438 41.308594 22.320312 41.75 C 21.191406 41.863281 20.058594 41.902344 18.921875 41.863281 C 18.777344 43.964844 17.644531 45.09375 15.523438 45.25 C 13.507812 45.121094 12.375 44.070312 12.125 42.085938 C 11.0625 42.054688 10.003906 42.089844 8.949219 42.199219 C 7.710938 44.847656 6.011719 45.183594 3.851562 43.214844 C 3.019531 41.003906 3.734375 39.539062 6.003906 38.816406 C 6.457031 38.027344 6.984375 37.3125 7.589844 36.671875 C 7.824219 36.367188 8.125 36.140625 8.496094 35.996094 Z M 8.496094 35.996094 "/>
<path style=" stroke:none;fill-rule:evenodd;fill:rgb(4.705882%,21.176471%,37.647059%);fill-opacity:1;" d="M 62.65625 38.480469 C 63.363281 38.980469 64.082031 39.507812 64.808594 40.058594 C 65.847656 42.402344 65.128906 43.902344 62.65625 44.574219 C 61.269531 44.394531 60.363281 43.644531 59.9375 42.3125 C 58.878906 42.015625 57.824219 42.015625 56.765625 42.3125 C 56.171875 44.683594 54.660156 45.621094 52.234375 45.136719 C 51.53125 44.921875 51.003906 44.507812 50.648438 43.894531 C 50.890625 43.902344 51.117188 43.980469 51.328125 44.121094 C 51.597656 44.039062 51.597656 43.929688 51.328125 43.785156 C 51.460938 43.675781 51.613281 43.640625 51.78125 43.667969 C 53.84375 44.597656 55.128906 43.957031 55.632812 41.75 C 55.546875 41.234375 55.394531 40.746094 55.179688 40.285156 C 55.515625 40.066406 55.742188 39.769531 55.859375 39.378906 C 56.269531 39.820312 56.496094 40.351562 56.539062 40.957031 C 57.675781 40.996094 58.808594 40.957031 59.9375 40.847656 C 60.433594 40.089844 61.039062 39.453125 61.75 38.929688 C 62.054688 38.777344 62.355469 38.628906 62.65625 38.480469 Z M 62.65625 38.480469 "/>
<path style=" stroke:none;fill-rule:evenodd;fill:rgb(54.901961%,79.607843%,94.117647%);fill-opacity:1;" d="M 17.5625 40.285156 C 18.101562 41.699219 17.796875 42.867188 16.65625 43.785156 C 14.921875 44.394531 13.785156 43.832031 13.257812 42.085938 C 13.199219 41.453125 13.3125 40.851562 13.597656 40.285156 C 14.917969 39.089844 16.238281 39.089844 17.5625 40.285156 Z M 17.5625 40.285156 "/>
<path style=" stroke:none;fill-rule:evenodd;fill:rgb(36.862745%,68.235294%,89.019608%);fill-opacity:1;" d="M 55.179688 40.285156 C 55.394531 40.746094 55.546875 41.234375 55.632812 41.75 C 55.128906 43.957031 53.84375 44.597656 51.78125 43.667969 C 51.140625 42.796875 50.949219 41.820312 51.214844 40.734375 C 52.355469 39.117188 53.679688 38.964844 55.179688 40.285156 Z M 55.179688 40.285156 "/>
<path style=" stroke:none;fill-rule:evenodd;fill:rgb(27.058824%,59.215686%,88.627451%);fill-opacity:1;" d="M 5.777344 40.058594 C 7.171875 40.054688 7.816406 40.730469 7.703125 42.085938 C 6.839844 43.5 5.855469 43.574219 4.757812 42.3125 C 4.550781 41.300781 4.890625 40.550781 5.777344 40.058594 Z M 5.777344 40.058594 "/>
<path style=" stroke:none;fill-rule:evenodd;fill:rgb(20.392157%,53.333333%,82.352941%);fill-opacity:1;" d="M 61.75 40.285156 C 63.601562 39.980469 64.320312 40.730469 63.902344 42.539062 C 63.136719 43.335938 62.304688 43.414062 61.410156 42.761719 C 60.921875 41.855469 61.035156 41.027344 61.75 40.285156 Z M 61.75 40.285156 "/>
<path style=" stroke:none;fill-rule:evenodd;fill:rgb(97.254902%,98.431373%,98.431373%);fill-opacity:1;" d="M 33.199219 51.570312 C 32.691406 51.691406 32.316406 51.992188 32.066406 52.472656 C 30.441406 51.472656 28.777344 50.535156 27.078125 49.652344 C 26.558594 48.894531 26.105469 48.109375 25.71875 47.28125 C 26.027344 45.914062 26.554688 44.636719 27.304688 43.441406 C 29.316406 44.710938 31.507812 45.390625 33.878906 45.476562 C 33.914062 47.355469 33.878906 49.234375 33.765625 51.117188 C 33.539062 51.246094 33.351562 51.394531 33.199219 51.570312 Z M 33.199219 51.570312 "/>
<path style=" stroke:none;fill-rule:evenodd;fill:rgb(5.490196%,23.529412%,41.176471%);fill-opacity:1;" d="M 37.050781 53.601562 C 36.75 53.636719 36.488281 53.5625 36.257812 53.375 C 36.210938 53.726562 36.097656 54.023438 35.917969 54.273438 C 36.085938 53.125 35.59375 52.449219 34.445312 52.246094 C 33.972656 52.386719 33.554688 52.613281 33.199219 52.921875 C 33.121094 52.433594 33.121094 51.984375 33.199219 51.570312 C 33.351562 51.394531 33.539062 51.246094 33.765625 51.117188 C 33.878906 49.234375 33.914062 47.355469 33.878906 45.476562 C 31.507812 45.390625 29.316406 44.710938 27.304688 43.441406 C 26.554688 44.636719 26.027344 45.914062 25.71875 47.28125 C 25.484375 46.855469 25.183594 46.480469 24.8125 46.152344 C 25.386719 44.898438 25.914062 43.617188 26.398438 42.3125 C 25.59375 42.171875 24.835938 41.90625 24.132812 41.523438 C 31.007812 41.375 37.882812 41.375 44.753906 41.523438 C 44.304688 41.921875 43.777344 42.144531 43.167969 42.199219 C 42.753906 42.535156 42.640625 42.945312 42.828125 43.441406 C 43.28125 44.347656 43.734375 45.25 44.1875 46.152344 C 44.765625 46.382812 45.332031 46.644531 45.886719 46.941406 C 46.332031 47.332031 46.558594 47.824219 46.566406 48.410156 C 47.785156 48.480469 48.996094 48.40625 50.195312 48.183594 C 51.21875 46.261719 52.652344 45.882812 54.5 47.054688 C 55.699219 48.515625 55.699219 49.980469 54.5 51.457031 C 52.207031 52.609375 50.695312 51.96875 49.96875 49.539062 C 48.832031 49.5 47.699219 49.539062 46.566406 49.652344 C 45.492188 51.132812 44.320312 51.246094 43.054688 49.992188 C 41.078125 51.246094 39.078125 52.445312 37.050781 53.601562 Z M 37.050781 53.601562 "/>
<path style=" stroke:none;fill-rule:evenodd;fill:rgb(95.294118%,98.039216%,98.823529%);fill-opacity:1;" d="M 35.238281 42.085938 C 37.355469 42.054688 39.46875 42.085938 41.582031 42.199219 C 39.609375 43.570312 37.421875 44.285156 35.011719 44.347656 C 34.953125 43.570312 35.03125 42.816406 35.238281 42.085938 Z M 35.238281 42.085938 "/>
<path style=" stroke:none;fill-rule:evenodd;fill:rgb(95.294118%,98.039216%,98.823529%);fill-opacity:1;" d="M 27.53125 42.3125 C 29.605469 42.089844 31.722656 42.015625 33.878906 42.085938 C 33.878906 42.839844 33.878906 43.59375 33.878906 44.347656 C 31.550781 44.296875 29.4375 43.617188 27.53125 42.3125 Z M 27.53125 42.3125 "/>
<path style=" stroke:none;fill-rule:evenodd;fill:rgb(97.647059%,98.431373%,98.823529%);fill-opacity:1;" d="M 41.582031 43.441406 C 42.210938 44.5 42.8125 45.597656 43.394531 46.714844 C 42.777344 47.386719 42.4375 48.175781 42.375 49.085938 C 40.597656 50.195312 38.785156 51.253906 36.9375 52.246094 C 36.375 51.816406 35.769531 51.441406 35.125 51.117188 C 35.011719 49.234375 34.972656 47.355469 35.011719 45.476562 C 37.425781 45.445312 39.617188 44.773438 41.582031 43.441406 Z M 41.582031 43.441406 "/>
<path style=" stroke:none;fill-rule:evenodd;fill:rgb(3.137255%,20%,37.647059%);fill-opacity:1;" d="M 24.8125 46.152344 C 25.183594 46.480469 25.484375 46.855469 25.71875 47.28125 C 26.105469 48.109375 26.558594 48.894531 27.078125 49.652344 C 28.777344 50.535156 30.441406 51.472656 32.066406 52.472656 C 32.316406 51.992188 32.691406 51.691406 33.199219 51.570312 C 33.121094 51.984375 33.121094 52.433594 33.199219 52.921875 C 32.566406 54.660156 33.171875 55.449219 35.011719 55.292969 C 35.519531 55.121094 35.824219 54.785156 35.917969 54.273438 C 36.097656 54.023438 36.210938 53.726562 36.257812 53.375 C 36.488281 53.5625 36.75 53.636719 37.050781 53.601562 C 36.945312 55.917969 35.738281 56.859375 33.425781 56.421875 C 32.210938 55.777344 31.609375 54.761719 31.613281 53.375 C 29.664062 52.347656 27.738281 51.292969 25.832031 50.214844 C 24.390625 51.011719 23.21875 50.746094 22.320312 49.425781 C 21.167969 49.296875 20.035156 49.410156 18.921875 49.765625 C 17.65625 52.085938 16.03125 52.390625 14.050781 50.667969 C 13.222656 49.144531 13.488281 47.832031 14.84375 46.714844 C 16.746094 45.878906 18.109375 46.40625 18.921875 48.296875 C 20.082031 48.496094 21.214844 48.421875 22.320312 48.070312 C 22.941406 47.089844 23.769531 46.457031 24.8125 46.152344 Z M 24.8125 46.152344 "/>
<path style=" stroke:none;fill-rule:evenodd;fill:rgb(25.490196%,58.431373%,87.843137%);fill-opacity:1;" d="M 15.75 47.507812 C 17.457031 47.589844 18.027344 48.414062 17.449219 49.992188 C 16.550781 50.898438 15.722656 50.820312 14.957031 49.765625 C 14.675781 48.789062 14.9375 48.039062 15.75 47.507812 Z M 15.75 47.507812 "/>
<path style=" stroke:none;fill-rule:evenodd;fill:rgb(30.196078%,62.745098%,91.764706%);fill-opacity:1;" d="M 23.90625 47.734375 C 25.085938 47.703125 25.464844 48.226562 25.039062 49.3125 C 23.425781 49.710938 23.046875 49.1875 23.90625 47.734375 Z M 23.90625 47.734375 "/>
<path style=" stroke:none;fill-rule:evenodd;fill:rgb(27.45098%,63.529412%,90.588235%);fill-opacity:1;" d="M 44.074219 47.734375 C 44.972656 47.519531 45.5 47.863281 45.660156 48.746094 C 45.601562 49.03125 45.453125 49.257812 45.207031 49.425781 C 43.59375 49.695312 43.214844 49.128906 44.074219 47.734375 Z M 44.074219 47.734375 "/>
<path style=" stroke:none;fill-rule:evenodd;fill:rgb(26.666667%,56.862745%,84.705882%);fill-opacity:1;" d="M 52.234375 47.507812 C 54.070312 47.636719 54.636719 48.542969 53.933594 50.214844 C 52.511719 51.261719 51.566406 50.917969 51.101562 49.199219 C 51.175781 48.414062 51.554688 47.851562 52.234375 47.507812 Z M 52.234375 47.507812 "/>
<path style=" stroke:none;fill-rule:evenodd;fill:rgb(21.960784%,54.901961%,84.313725%);fill-opacity:1;" d="M 35.917969 54.273438 C 35.824219 54.785156 35.519531 55.121094 35.011719 55.292969 C 33.171875 55.449219 32.566406 54.660156 33.199219 52.921875 C 33.554688 52.613281 33.972656 52.386719 34.445312 52.246094 C 35.59375 52.449219 36.085938 53.125 35.917969 54.273438 Z M 35.917969 54.273438 "/>
</g>
</svg>
