<?xml version="1.0" encoding="UTF-8"?>
<!DOCTYPE svg PUBLIC "-//W3C//DTD SVG 1.1//EN" "http://www.w3.org/Graphics/SVG/1.1/DTD/svg11.dtd">
<svg xmlns="http://www.w3.org/2000/svg" version="1.1" width="684px" height="257px" style="shape-rendering:geometricPrecision; text-rendering:geometricPrecision; image-rendering:optimizeQuality; fill-rule:evenodd; clip-rule:evenodd" xmlns:xlink="http://www.w3.org/1999/xlink">
<g><path style="opacity:1" fill="#fdfefe" d="M -0.5,-0.5 C 227.5,-0.5 455.5,-0.5 683.5,-0.5C 683.5,85.1667 683.5,170.833 683.5,256.5C 455.5,256.5 227.5,256.5 -0.5,256.5C -0.5,170.833 -0.5,85.1667 -0.5,-0.5 Z"/></g>
<g><path style="opacity:1" fill="#fbfcfc" d="M 188.5,56.5 C 187.129,59.567 185.462,62.567 183.5,65.5C 174.832,59.2763 165.166,55.6097 154.5,54.5C 154.5,53.1667 154.5,51.8333 154.5,50.5C 154.169,43.1365 154.503,35.8032 155.5,28.5C 157.937,27.1966 160.104,25.5299 162,23.5C 169.667,28.8333 177.333,34.1667 185,39.5C 185.054,44.2107 186.888,48.0441 190.5,51C 189.68,52.8003 189.014,54.6336 188.5,56.5 Z"/></g>
<g><path style="opacity:1" fill="#fcfcfc" d="M 149.5,28.5 C 149.5,37.1667 149.5,45.8333 149.5,54.5C 139.377,55.6518 130.044,58.9851 121.5,64.5C 118.415,60.2682 116.082,55.6015 114.5,50.5C 117.373,46.7396 119.373,42.5729 120.5,38C 127.167,33.6667 133.833,29.3333 140.5,25C 143.607,25.5404 146.607,26.7071 149.5,28.5 Z"/></g>
<g><path style="opacity:1" fill="#4496cb" d="M 192.5,58.5 C 190.517,58.8432 189.183,58.1765 188.5,56.5C 189.014,54.6336 189.68,52.8003 190.5,51C 186.888,48.0441 185.054,44.2107 185,39.5C 177.333,34.1667 169.667,28.8333 162,23.5C 160.104,25.5299 157.937,27.1966 155.5,28.5C 154.503,35.8032 154.169,43.1365 154.5,50.5C 153.732,51.2625 153.232,52.2625 153,53.5C 152.086,49.8149 151.419,50.1482 151,54.5C 150.83,45.657 150.33,36.9903 149.5,28.5C 146.607,26.7071 143.607,25.5404 140.5,25C 133.833,29.3333 127.167,33.6667 120.5,38C 119.373,42.5729 117.373,46.7396 114.5,50.5C 112.18,51.8255 109.513,51.8255 106.5,50.5C 101.569,49.5642 99.2352,46.5642 99.5,41.5C 94.1667,41.5 88.8333,41.5 83.5,41.5C 79.8172,50.7784 73.4839,52.9451 64.5,48C 59.2271,41.7367 59.2271,35.4034 64.5,29C 73.7271,23.988 80.3938,26.3214 84.5,36C 89.8333,36.6667 95.1667,36.6667 100.5,36C 105.3,30.5925 110.633,30.0925 116.5,34.5C 124.337,29.7489 132.004,24.7489 139.5,19.5C 140.732,7.4202 147.066,3.25353 158.5,7C 159.333,7.83333 160.167,8.66667 161,9.5C 162.5,13.0703 164,16.5703 165.5,20C 173.087,25.0432 180.587,30.2099 188,35.5C 193.979,30.0301 199.479,30.5301 204.5,37C 209.823,37.4994 215.156,37.666 220.5,37.5C 223.476,26.2827 230.142,23.4494 240.5,29C 246.536,37.0513 245.536,44.0513 237.5,50C 230.211,52.2681 224.877,50.1014 221.5,43.5C 215.872,42.5046 210.206,42.1712 204.5,42.5C 203.597,47.9052 200.43,51.2386 195,52.5C 194.427,54.6406 193.594,56.6406 192.5,58.5 Z"/></g>
<g><path style="opacity:1" fill="#81c9f5" d="M 192.5,37.5 C 199.676,36.9846 201.342,39.8179 197.5,46C 190.409,46.3958 188.742,43.5625 192.5,37.5 Z"/></g>
<g><path style="opacity:1" fill="#95d6f9" d="M 106.5,36.5 C 111.665,36.1619 113.831,38.4953 113,43.5C 108.923,47.8588 105.756,47.1921 103.5,41.5C 104.26,39.6396 105.26,37.973 106.5,36.5 Z"/></g>
<g><path style="opacity:1" fill="#73beee" d="M 229.5,31.5 C 236.606,31.1055 239.772,34.4388 239,41.5C 234.571,46.8084 230.237,46.8084 226,41.5C 224.756,37.191 225.923,33.8577 229.5,31.5 Z"/></g>
<g><path style="opacity:1" fill="#99d6f9" d="M 69.5,31.5 C 78.5148,31.6232 80.8481,35.6232 76.5,43.5C 68.7649,46.2581 65.2649,43.5915 66,35.5C 67.3756,34.2949 68.5423,32.9616 69.5,31.5 Z"/></g>
<g><path style="opacity:1" fill="#98d3f8" d="M 148.5,10.5 C 155.173,9.3824 158.34,12.0491 158,18.5C 154.472,24.7401 150.472,25.0734 146,19.5C 145.131,16.0072 145.964,13.0072 148.5,10.5 Z"/></g>
<g><path style="opacity:1" fill="#99d5f6" d="M 240.5,64.5 C 247.231,70.5117 246.898,76.345 239.5,82C 235.525,82.987 231.859,82.487 228.5,80.5C 223.065,74.781 223.398,69.281 229.5,64C 233.281,61.9651 236.948,62.1317 240.5,64.5 Z"/></g>
<g><path style="opacity:1" fill="#2f7cb5" d="M 278.5,83.5 C 279.806,82.5326 280.473,81.1993 280.5,79.5C 276.876,79.4823 273.876,80.8156 271.5,83.5C 268.833,81.8266 266.833,79.4933 265.5,76.5C 260.208,75.5052 254.875,75.1718 249.5,75.5C 248.944,81.225 245.944,85.0584 240.5,87C 236.133,87.3638 231.966,87.5304 228,87.5C 225.704,90.5968 223.537,93.7635 221.5,97C 222.966,99.4318 224.299,101.932 225.5,104.5C 223.5,105.833 221.5,105.833 219.5,104.5C 218.186,101.511 216.853,98.5106 215.5,95.5C 218.984,91.8664 221.984,87.8664 224.5,83.5C 225.526,82.147 226.859,81.147 228.5,80.5C 231.859,82.487 235.525,82.987 239.5,82C 246.898,76.345 247.231,70.5117 240.5,64.5C 241.883,63.5573 243.216,62.5573 244.5,61.5C 247.595,63.5103 249.595,66.3436 250.5,70C 255.167,70.6667 259.833,70.6667 264.5,70C 267.852,60.6054 274.185,57.9387 283.5,62C 290.167,68.6667 290.167,75.3333 283.5,82C 281.975,83.0086 280.308,83.5086 278.5,83.5 Z"/></g>
<g><path style="opacity:1" fill="#67b6ee" d="M 273.5,65.5 C 279.093,64.4506 282.426,66.6173 283.5,72C 282.685,78.0395 279.352,80.0395 273.5,78C 269.547,73.8353 269.547,69.6686 273.5,65.5 Z"/></g>
<g><path style="opacity:1" fill="#4c9fce" d="M 149.5,28.5 C 150.33,36.9903 150.83,45.657 151,54.5C 151.419,50.1482 152.086,49.8149 153,53.5C 153.232,52.2625 153.732,51.2625 154.5,50.5C 154.5,51.8333 154.5,53.1667 154.5,54.5C 165.166,55.6097 174.832,59.2763 183.5,65.5C 185.462,62.567 187.129,59.567 188.5,56.5C 189.183,58.1765 190.517,58.8432 192.5,58.5C 190.977,62.381 189.31,66.2143 187.5,70C 191.928,70.6967 195.928,72.3634 199.5,75C 168.833,75.6667 138.167,75.6667 107.5,75C 110.235,71.932 113.235,69.2654 116.5,67C 114.245,60.6212 110.911,55.1212 106.5,50.5C 109.513,51.8255 112.18,51.8255 114.5,50.5C 116.082,55.6015 118.415,60.2682 121.5,64.5C 130.044,58.9851 139.377,55.6518 149.5,54.5C 149.5,45.8333 149.5,37.1667 149.5,28.5 Z"/></g>
<g><path style="opacity:1" fill="#fafbfb" d="M 154.5,59.5 C 164.549,60.3489 173.549,63.8489 181.5,70C 172.506,70.4998 163.506,70.6664 154.5,70.5C 154.5,66.8333 154.5,63.1667 154.5,59.5 Z"/></g>
<g><path style="opacity:1" fill="#fcfcfb" d="M 144.5,59.5 C 146.167,59.5 147.833,59.5 149.5,59.5C 149.5,63.1667 149.5,66.8333 149.5,70.5C 116.599,73.741 114.932,70.0743 144.5,59.5 Z"/></g>
<g><path style="opacity:1" fill="#388bc1" d="M 36.5,78.5 C 35.0813,77.5489 33.4147,77.2155 31.5,77.5C 34.9194,69.5149 32.2527,65.6816 23.5,66C 19.8759,68.1613 18.7093,71.328 20,75.5C 21.3756,76.7051 22.5423,78.0384 23.5,79.5C 21.6011,78.955 19.9345,79.6216 18.5,81.5C 14.7741,77.6155 13.6074,72.9489 15,67.5C 18.3228,61.0919 23.4895,58.9252 30.5,61C 34.702,62.3692 37.3687,65.2025 38.5,69.5C 43.456,70.4941 48.456,70.8275 53.5,70.5C 57.146,58.3452 64.8126,54.8452 76.5,60C 80.5064,62.8515 82.8398,66.6848 83.5,71.5C 87.8461,71.3343 92.1794,71.501 96.5,72C 97.5,73 98.5,74 99.5,75C 92.5287,77.4268 88.1953,82.2601 86.5,89.5C 85.9925,84.6515 87.6592,80.4848 91.5,77C 88.8333,76.3333 86.1667,76.3333 83.5,77C 81.5667,79.6759 80.4,82.5092 80,85.5C 83.0146,89.2059 85.1813,93.2059 86.5,97.5C 81.8567,95.706 78.1901,92.5393 75.5,88C 64.6307,90.0659 56.964,86.0659 52.5,76C 47.8333,75.3333 43.1667,75.3333 38.5,76C 37.9341,76.9947 37.2674,77.828 36.5,78.5 Z"/></g>
<g><path style="opacity:1" fill="#a5dbf8" d="M 65.5,62.5 C 75.7413,62.8824 79.5746,67.8824 77,77.5C 73.1,82.5333 68.2667,83.7 62.5,81C 55.3962,73.572 56.3962,67.4054 65.5,62.5 Z"/></g>
<g><path style="opacity:1" fill="#7ac1f4" d="M 31.5,77.5 C 29.0872,79.0507 26.4206,79.7174 23.5,79.5C 22.5423,78.0384 21.3756,76.7051 20,75.5C 18.7093,71.328 19.8759,68.1613 23.5,66C 32.2527,65.6816 34.9194,69.5149 31.5,77.5 Z"/></g>
<g><path style="opacity:1" fill="#3989be" d="M 244.5,61.5 C 243.216,62.5573 241.883,63.5573 240.5,64.5C 236.948,62.1317 233.281,61.9651 229.5,64C 223.398,69.281 223.065,74.781 228.5,80.5C 226.859,81.147 225.526,82.147 224.5,83.5C 222.694,81.9106 221.361,79.9106 220.5,77.5C 216.204,76.6725 211.871,76.1725 207.5,76C 206.167,74.6667 204.833,73.3333 203.5,72C 208.864,71.8295 214.198,71.3295 219.5,70.5C 222.285,60.8746 228.618,56.708 238.5,58C 241.025,58.4238 243.025,59.5905 244.5,61.5 Z"/></g>
<g><path style="opacity:1" fill="#faf9fb" d="M 271.5,83.5 C 268.268,90.4884 262.935,92.6551 255.5,90C 248.226,92.1059 244.56,96.9393 244.5,104.5C 238.167,104.5 231.833,104.5 225.5,104.5C 224.299,101.932 222.966,99.4318 221.5,97C 223.537,93.7635 225.704,90.5968 228,87.5C 231.966,87.5304 236.133,87.3638 240.5,87C 245.944,85.0584 248.944,81.225 249.5,75.5C 254.875,75.1718 260.208,75.5052 265.5,76.5C 266.833,79.4933 268.833,81.8266 271.5,83.5 Z"/></g>
<g><path style="opacity:1" fill="#527cad" d="M 424.5,76.5 C 434.737,74.9387 441.404,78.9387 444.5,88.5C 441.882,88.7792 439.382,89.4459 437,90.5C 434.897,84.5306 430.73,82.3639 424.5,84C 418.879,88.8853 417.046,95.052 419,102.5C 421.406,110.261 426.239,112.428 433.5,109C 435.487,106.86 436.82,104.36 437.5,101.5C 440.056,102.051 442.389,103.051 444.5,104.5C 440.357,116.07 432.357,119.904 420.5,116C 411.637,109.758 408.471,101.258 411,90.5C 413.052,83.2839 417.552,78.6172 424.5,76.5 Z"/></g>
<g><path style="opacity:1" fill="#527cad" d="M 464.5,76.5 C 482.774,75.6083 490.941,84.275 489,102.5C 484.943,116.615 475.776,121.449 461.5,117C 453.576,112.992 449.909,106.492 450.5,97.5C 449.97,86.8618 454.637,79.8618 464.5,76.5 Z"/></g>
<g><path style="opacity:1" fill="#517bad" d="M 352.5,77.5 C 355.167,77.5 357.833,77.5 360.5,77.5C 365.203,90.5791 370.203,103.579 375.5,116.5C 372.572,117.484 369.572,117.817 366.5,117.5C 366.776,110.033 363.276,107.033 356,108.5C 353.5,108.667 351,108.833 348.5,109C 347.071,111.69 346.071,114.523 345.5,117.5C 342.482,117.665 339.482,117.498 336.5,117C 341.978,103.879 347.311,90.7127 352.5,77.5 Z"/></g>
<g><path style="opacity:1" fill="#5679ab" d="M 379.5,77.5 C 382.167,77.5 384.833,77.5 387.5,77.5C 387.5,90.8333 387.5,104.167 387.5,117.5C 384.833,117.5 382.167,117.5 379.5,117.5C 379.5,104.167 379.5,90.8333 379.5,77.5 Z"/></g>
<g><path style="opacity:1" fill="#577eaf" d="M 495.5,77.5 C 499.007,76.9935 502.174,77.6602 505,79.5C 509.667,87.5 514.333,95.5 519,103.5C 519.5,94.8397 519.666,86.1731 519.5,77.5C 522.167,77.5 524.833,77.5 527.5,77.5C 527.5,90.8333 527.5,104.167 527.5,117.5C 524.428,117.817 521.428,117.484 518.5,116.5C 513.468,108.631 508.635,100.631 504,92.5C 503.5,100.827 503.334,109.16 503.5,117.5C 500.833,117.5 498.167,117.5 495.5,117.5C 495.5,104.167 495.5,90.8333 495.5,77.5 Z"/></g>
<g><path style="opacity:1" fill="#517eaf" d="M 533.5,77.5 C 544.5,77.5 555.5,77.5 566.5,77.5C 566.5,79.8333 566.5,82.1667 566.5,84.5C 562.5,84.5 558.5,84.5 554.5,84.5C 554.5,95.5 554.5,106.5 554.5,117.5C 551.833,117.5 549.167,117.5 546.5,117.5C 546.5,106.5 546.5,95.5 546.5,84.5C 542.167,84.5 537.833,84.5 533.5,84.5C 533.5,82.1667 533.5,79.8333 533.5,77.5 Z"/></g>
<g><path style="opacity:1" fill="#5179ab" d="M 570.5,77.5 C 580.5,77.5 590.5,77.5 600.5,77.5C 600.5,79.8333 600.5,82.1667 600.5,84.5C 593.167,84.5 585.833,84.5 578.5,84.5C 578.5,87.5 578.5,90.5 578.5,93.5C 585.167,93.5 591.833,93.5 598.5,93.5C 598.5,95.8333 598.5,98.1667 598.5,100.5C 591.833,100.5 585.167,100.5 578.5,100.5C 578.5,103.833 578.5,107.167 578.5,110.5C 585.833,110.5 593.167,110.5 600.5,110.5C 600.5,112.833 600.5,115.167 600.5,117.5C 590.5,117.5 580.5,117.5 570.5,117.5C 570.5,104.167 570.5,90.8333 570.5,77.5 Z"/></g>
<g><path style="opacity:1" fill="#577eaf" d="M 607.5,77.5 C 611.007,76.9935 614.174,77.6602 617,79.5C 621.667,87.5 626.333,95.5 631,103.5C 631.5,94.8397 631.666,86.1731 631.5,77.5C 634.167,77.5 636.833,77.5 639.5,77.5C 639.5,90.8333 639.5,104.167 639.5,117.5C 636.428,117.817 633.428,117.484 630.5,116.5C 625.468,108.631 620.635,100.631 616,92.5C 615.5,100.827 615.334,109.16 615.5,117.5C 612.833,117.5 610.167,117.5 607.5,117.5C 607.5,104.167 607.5,90.8333 607.5,77.5 Z"/></g>
<g><path style="opacity:1" fill="#517eaf" d="M 645.5,77.5 C 656.5,77.5 667.5,77.5 678.5,77.5C 678.5,79.8333 678.5,82.1667 678.5,84.5C 674.5,84.5 670.5,84.5 666.5,84.5C 666.5,95.5 666.5,106.5 666.5,117.5C 663.833,117.5 661.167,117.5 658.5,117.5C 658.5,106.5 658.5,95.5 658.5,84.5C 654.167,84.5 649.833,84.5 645.5,84.5C 645.5,82.1667 645.5,79.8333 645.5,77.5 Z"/></g>
<g><path style="opacity:1" fill="#5cb2dd" d="M 209.5,170.5 C 209.5,148.5 209.5,126.5 209.5,104.5C 209.5,102.167 209.5,99.8333 209.5,97.5C 204.833,97.5 200.167,97.5 195.5,97.5C 189.833,96.1667 184.167,96.1667 178.5,97.5C 149.839,96.5189 121.172,96.5189 92.5,97.5C 90.928,90.4887 92.928,84.9887 98.5,81C 133.918,80.0136 169.252,80.347 204.5,82C 207.176,83.8396 209.009,86.3396 210,89.5C 210.83,116.67 210.664,143.67 209.5,170.5 Z"/></g>
<g><path style="opacity:1" fill="#fafbfb" d="M 465.5,83.5 C 479.398,83.9315 484.231,90.9315 480,104.5C 475.733,111.876 469.899,113.376 462.5,109C 458.681,103.795 457.514,97.9618 459,91.5C 460.305,88.0386 462.471,85.372 465.5,83.5 Z"/></g>
<g><path style="opacity:1" fill="#20679e" d="M 278.5,83.5 C 275.121,86.5674 272.454,90.234 270.5,94.5C 277.368,106.06 274.702,114.56 262.5,120C 253.638,121.402 247.638,117.902 244.5,109.5C 239.32,108.185 233.986,108.185 228.5,109.5C 228.624,110.107 228.957,110.44 229.5,110.5C 230.583,114.085 231.249,117.751 231.5,121.5C 230.533,122.806 229.199,123.473 227.5,123.5C 226.805,119.055 225.638,114.722 224,110.5C 221.281,109.556 218.448,109.223 215.5,109.5C 215.5,107.833 215.5,106.167 215.5,104.5C 216.833,104.5 218.167,104.5 219.5,104.5C 221.5,105.833 223.5,105.833 225.5,104.5C 231.833,104.5 238.167,104.5 244.5,104.5C 244.56,96.9393 248.226,92.1059 255.5,90C 262.935,92.6551 268.268,90.4884 271.5,83.5C 273.876,80.8156 276.876,79.4823 280.5,79.5C 280.473,81.1993 279.806,82.5326 278.5,83.5 Z"/></g>
<g><path style="opacity:1" fill="#f5f6f5" d="M 355.5,88.5 C 357.772,92.4518 359.772,96.6185 361.5,101C 358.183,101.498 354.85,101.665 351.5,101.5C 352.435,97.0307 353.768,92.6973 355.5,88.5 Z"/></g>
<g><path style="opacity:1" fill="#2976ae" d="M 31.5,77.5 C 33.4147,77.2155 35.0813,77.5489 36.5,78.5C 34.9835,80.1857 33.6502,82.019 32.5,84C 34.3266,86.6576 36.3266,89.1576 38.5,91.5C 49.5221,87.6777 56.8554,91.3443 60.5,102.5C 58.9582,103.301 57.2915,103.634 55.5,103.5C 53.3294,96.5786 48.6627,94.0786 41.5,96C 40.0161,96.6622 38.6828,97.4955 37.5,98.5C 38.3475,96.5185 38.8475,94.5185 39,92.5C 38,93.8333 37,93.8333 36,92.5C 35.6232,93.9423 34.7899,94.9423 33.5,95.5C 31.8482,91.6563 29.5149,88.1563 26.5,85C 23.4349,84.6317 20.7682,83.465 18.5,81.5C 19.9345,79.6216 21.6011,78.955 23.5,79.5C 26.4206,79.7174 29.0872,79.0507 31.5,77.5 Z"/></g>
<g><path style="opacity:1" fill="#a3d9f6" d="M 55.5,103.5 C 54.1827,114.44 48.5161,117.606 38.5,113C 34.9075,108.417 34.5741,103.584 37.5,98.5C 38.6828,97.4955 40.0161,96.6622 41.5,96C 48.6627,94.0786 53.3294,96.5786 55.5,103.5 Z"/></g>
<g><path style="opacity:1" fill="#fbfdfd" d="M 150.5,103.5 C 157.77,122.304 165.436,140.971 173.5,159.5C 167.78,160.785 162.113,160.785 156.5,159.5C 155.929,156.523 154.929,153.69 153.5,151C 144.149,150.168 134.816,150.335 125.5,151.5C 123.878,154.408 122.544,157.408 121.5,160.5C 116.305,160.821 111.305,160.487 106.5,159.5C 114.503,139.821 122.503,120.155 130.5,100.5C 131.267,99.828 131.934,98.9947 132.5,98C 137.5,97.3333 142.5,97.3333 147.5,98C 148.229,100.058 149.229,101.891 150.5,103.5 Z"/></g>
<g><path style="opacity:1" fill="#f6f8fa" d="M 195.5,97.5 C 195.5,99.8333 195.5,102.167 195.5,104.5C 195.5,123.167 195.5,141.833 195.5,160.5C 190.167,160.5 184.833,160.5 179.5,160.5C 179.5,139.5 179.5,118.5 179.5,97.5C 184.833,97.5 190.167,97.5 195.5,97.5 Z"/></g>
<g><path style="opacity:1" fill="#288bd3" d="M 178.5,97.5 C 178.5,99.8333 178.5,102.167 178.5,104.5C 169.083,104.805 159.75,104.472 150.5,103.5C 149.229,101.891 148.229,100.058 147.5,98C 142.5,97.3333 137.5,97.3333 132.5,98C 131.934,98.9947 131.267,99.828 130.5,100.5C 129.466,101.687 128.133,102.52 126.5,103C 127.167,103.333 127.833,103.667 128.5,104C 116.505,104.5 104.505,104.667 92.5,104.5C 92.5,102.167 92.5,99.8333 92.5,97.5C 121.172,96.5189 149.839,96.5189 178.5,97.5 Z"/></g>
<g><path style="opacity:1" fill="#228ad5" d="M 195.5,97.5 C 200.167,97.5 204.833,97.5 209.5,97.5C 209.5,99.8333 209.5,102.167 209.5,104.5C 204.833,104.5 200.167,104.5 195.5,104.5C 195.5,102.167 195.5,99.8333 195.5,97.5 Z"/></g>
<g><path style="opacity:1" fill="#93d1f4" d="M 256.5,94.5 C 267.949,95.2645 271.615,100.931 267.5,111.5C 258.074,118.368 251.741,116.201 248.5,105C 249.168,99.8486 251.834,96.3486 256.5,94.5 Z"/></g>
<g><path style="opacity:1" fill="#7ca4c0" d="M 82.5,103.5 C 84.1667,103.5 85.8333,103.5 87.5,103.5C 87.5,105.5 87.5,107.5 87.5,109.5C 86.209,109.737 85.209,109.404 84.5,108.5C 86.1765,107.817 86.8432,106.483 86.5,104.5C 84.901,104.768 83.5676,104.434 82.5,103.5 Z"/></g>
<g><path style="opacity:1" fill="#89aec9" d="M 244.5,109.5 C 239.305,109.179 234.305,109.513 229.5,110.5C 228.957,110.44 228.624,110.107 228.5,109.5C 233.986,108.185 239.32,108.185 244.5,109.5 Z"/></g>
<g><path style="opacity:1" fill="#20669e" d="M 37.5,98.5 C 34.5741,103.584 34.9075,108.417 38.5,113C 48.5161,117.606 54.1827,114.44 55.5,103.5C 57.2915,103.634 58.9582,103.301 60.5,102.5C 67.8002,103.397 75.1335,103.731 82.5,103.5C 83.5676,104.434 84.901,104.768 86.5,104.5C 86.8432,106.483 86.1765,107.817 84.5,108.5C 82.712,108.215 81.0453,108.548 79.5,109.5C 78.4844,112.282 77.4844,114.949 76.5,117.5C 76.6309,116.624 76.2975,115.957 75.5,115.5C 74.5832,116.127 73.5832,116.461 72.5,116.5C 73.3705,113.888 74.0372,111.221 74.5,108.5C 69.7863,108.173 65.1196,108.507 60.5,109.5C 55.3524,120.161 47.3524,122.995 36.5,118C 29.7793,111.226 28.7793,103.726 33.5,95.5C 34.7899,94.9423 35.6232,93.9423 36,92.5C 37,93.8333 38,93.8333 39,92.5C 38.8475,94.5185 38.3475,96.5185 37.5,98.5 Z"/></g>
<g><path style="opacity:1" fill="#0d69a8" d="M 130.5,100.5 C 122.503,120.155 114.503,139.821 106.5,159.5C 105.662,159.842 105.328,160.508 105.5,161.5C 101.486,159.666 97.1532,158.999 92.5,159.5C 92.5,141.167 92.5,122.833 92.5,104.5C 104.505,104.667 116.505,104.5 128.5,104C 127.833,103.667 127.167,103.333 126.5,103C 128.133,102.52 129.466,101.687 130.5,100.5 Z"/></g>
<g><path style="opacity:1" fill="#1266a4" d="M 139.5,111.5 C 143.001,119.989 146.335,128.656 149.5,137.5C 142.858,138.664 136.192,138.831 129.5,138C 133.257,129.321 136.59,120.488 139.5,111.5 Z"/></g>
<g><path style="opacity:1" fill="#145285" d="M 230.5,140.5 C 228.75,141.233 227.083,141.566 225.5,141.5C 226.273,137.86 226.94,134.193 227.5,130.5C 223.833,130.5 220.167,130.5 216.5,130.5C 216.5,128.833 216.5,127.167 216.5,125.5C 220.649,126.08 224.316,125.414 227.5,123.5C 229.199,123.473 230.533,122.806 231.5,121.5C 231.5,122.833 231.5,124.167 231.5,125.5C 245.837,125.667 260.171,125.5 274.5,125C 278.049,116.626 284.049,114.293 292.5,118C 299.459,125.332 299.126,132.332 291.5,139C 283.541,141.843 277.874,139.343 274.5,131.5C 260.516,130.501 246.516,130.167 232.5,130.5C 232.212,133.939 231.546,137.272 230.5,140.5 Z"/></g>
<g><path style="opacity:1" fill="#4ea3e5" d="M 282.5,121.5 C 288.391,120.43 291.724,122.763 292.5,128.5C 291.422,134.095 288.088,135.928 282.5,134C 278.535,129.761 278.535,125.595 282.5,121.5 Z"/></g>
<g><path style="opacity:1" fill="#144b7d" d="M 76.5,117.5 C 76.5,120.167 76.5,122.833 76.5,125.5C 79.8333,125.5 83.1667,125.5 86.5,125.5C 86.5,127.167 86.5,128.833 86.5,130.5C 83.1667,130.5 79.8333,130.5 76.5,130.5C 76.2267,136.073 77.2267,141.406 79.5,146.5C 81.7427,147.474 84.076,147.808 86.5,147.5C 86.5,149.167 86.5,150.833 86.5,152.5C 84.8008,152.34 83.1341,152.506 81.5,153C 82.7875,154.41 83.9542,155.91 85,157.5C 85.3333,157.167 85.6667,156.833 86,156.5C 86.6667,159.167 86.6667,161.833 86,164.5C 83.2329,166.758 81.0662,169.425 79.5,172.5C 80.0924,174.423 81.0924,176.089 82.5,177.5C 80.4377,177.872 78.771,178.205 77.5,178.5C 71.6652,173.208 65.8318,173.208 60,178.5C 58.7475,181.014 58.2475,183.68 58.5,186.5C 57.71,185.391 57.21,184.058 57,182.5C 56.6667,183.167 56.3333,183.833 56,184.5C 55.6232,183.058 54.7899,182.058 53.5,181.5C 54.5691,174.596 58.5691,170.43 65.5,169C 68.5144,168.872 71.5144,168.872 74.5,169C 77.0168,166.651 79.3501,164.151 81.5,161.5C 79.8333,158.833 78.1667,156.167 76.5,153.5C 71.2079,152.505 65.8746,152.172 60.5,152.5C 60.1513,159.9 56.4847,164.566 49.5,166.5C 49.1667,165.167 48.8333,163.833 48.5,162.5C 55.1557,158.85 56.989,153.517 54,146.5C 44.5593,138.642 38.3926,140.642 35.5,152.5C 35.4413,155.109 36.108,157.443 37.5,159.5C 35.8595,160.147 34.5261,161.147 33.5,162.5C 27.8077,154.454 28.4743,146.954 35.5,140C 45.5804,134.354 53.5804,136.521 59.5,146.5C 64.5,147.833 69.5,147.833 74.5,146.5C 72.4725,141.363 71.4725,136.029 71.5,130.5C 57.8171,130.167 44.1504,130.501 30.5,131.5C 25.1443,140.384 18.311,141.718 10,135.5C 4.7183,125.067 7.7183,118.733 19,116.5C 24.586,116.578 28.4193,119.244 30.5,124.5C 44.1504,125.499 57.8171,125.833 71.5,125.5C 71.5079,122.455 71.8413,119.455 72.5,116.5C 73.5832,116.461 74.5832,116.127 75.5,115.5C 76.2975,115.957 76.6309,116.624 76.5,117.5 Z"/></g>
<g><path style="opacity:1" fill="#4fa4ec" d="M 15.5,121.5 C 24.7446,120.899 27.4113,124.732 23.5,133C 17.35,135.925 13.6834,134.092 12.5,127.5C 12.6284,125.045 13.6284,123.045 15.5,121.5 Z"/></g>
<g><path style="opacity:1" fill="#1772b0" d="M 195.5,97.5 C 190.167,97.5 184.833,97.5 179.5,97.5C 179.5,118.5 179.5,139.5 179.5,160.5C 184.833,160.5 190.167,160.5 195.5,160.5C 195.5,141.833 195.5,123.167 195.5,104.5C 200.167,104.5 204.833,104.5 209.5,104.5C 209.5,126.5 209.5,148.5 209.5,170.5C 208.857,173.988 206.857,176.488 203.5,178C 169.5,178.667 135.5,178.667 101.5,178C 97.5013,177.332 94.668,175.165 93,171.5C 92.5012,167.514 92.3345,163.514 92.5,159.5C 97.1532,158.999 101.486,159.666 105.5,161.5C 110.833,161.5 116.167,161.5 121.5,161.5C 122.289,161.217 122.956,160.717 123.5,160C 134.495,159.5 145.495,159.333 156.5,159.5C 162.113,160.785 167.78,160.785 173.5,159.5C 165.436,140.971 157.77,122.304 150.5,103.5C 159.75,104.472 169.083,104.805 178.5,104.5C 178.5,102.167 178.5,99.8333 178.5,97.5C 184.167,96.1667 189.833,96.1667 195.5,97.5 Z"/></g>
<g><path style="opacity:1" fill="#527cad" d="M 337.5,141.5 C 346.083,139.793 353.25,142.127 359,148.5C 359.638,149.609 360.138,150.775 360.5,152C 358.61,153.904 356.276,155.07 353.5,155.5C 349.053,148.168 343.053,146.668 335.5,151C 330.627,157.918 330.293,165.085 334.5,172.5C 340.34,177.497 346.507,177.83 353,173.5C 353.494,171.866 353.66,170.199 353.5,168.5C 350.167,168.5 346.833,168.5 343.5,168.5C 343.5,166.167 343.5,163.833 343.5,161.5C 349.5,161.5 355.5,161.5 361.5,161.5C 361.666,166.844 361.499,172.177 361,177.5C 351.675,184.348 341.842,185.181 331.5,180C 322.864,170.967 321.364,160.8 327,149.5C 329.975,145.952 333.475,143.286 337.5,141.5 Z"/></g>
<g><path style="opacity:1" fill="#527cad" d="M 609.5,141.5 C 627.774,140.608 635.941,149.275 634,167.5C 629.943,181.615 620.776,186.449 606.5,182C 598.576,177.992 594.909,171.492 595.5,162.5C 594.97,151.862 599.637,144.862 609.5,141.5 Z"/></g>
<g><path style="opacity:1" fill="#5179ab" d="M 368.5,142.5 C 378.5,142.5 388.5,142.5 398.5,142.5C 398.5,144.833 398.5,147.167 398.5,149.5C 391.167,149.5 383.833,149.5 376.5,149.5C 376.5,152.5 376.5,155.5 376.5,158.5C 383.167,158.5 389.833,158.5 396.5,158.5C 396.5,160.833 396.5,163.167 396.5,165.5C 389.833,165.5 383.167,165.5 376.5,165.5C 376.5,168.833 376.5,172.167 376.5,175.5C 383.833,175.5 391.167,175.5 398.5,175.5C 398.5,177.833 398.5,180.167 398.5,182.5C 388.5,182.5 378.5,182.5 368.5,182.5C 368.5,169.167 368.5,155.833 368.5,142.5 Z"/></g>
<g><path style="opacity:1" fill="#577eaf" d="M 405.5,142.5 C 409.007,141.994 412.174,142.66 415,144.5C 419.667,152.5 424.333,160.5 429,168.5C 429.5,159.84 429.666,151.173 429.5,142.5C 432.167,142.5 434.833,142.5 437.5,142.5C 437.5,155.833 437.5,169.167 437.5,182.5C 434.428,182.817 431.428,182.484 428.5,181.5C 423.468,173.631 418.635,165.631 414,157.5C 413.5,165.827 413.334,174.16 413.5,182.5C 410.833,182.5 408.167,182.5 405.5,182.5C 405.5,169.167 405.5,155.833 405.5,142.5 Z"/></g>
<g><path style="opacity:1" fill="#5179ab" d="M 445.5,142.5 C 455.5,142.5 465.5,142.5 475.5,142.5C 475.5,144.833 475.5,147.167 475.5,149.5C 468.167,149.5 460.833,149.5 453.5,149.5C 453.5,152.5 453.5,155.5 453.5,158.5C 460.167,158.5 466.833,158.5 473.5,158.5C 473.5,160.833 473.5,163.167 473.5,165.5C 466.833,165.5 460.167,165.5 453.5,165.5C 453.5,168.833 453.5,172.167 453.5,175.5C 460.833,175.5 468.167,175.5 475.5,175.5C 475.5,177.833 475.5,180.167 475.5,182.5C 465.5,182.5 455.5,182.5 445.5,182.5C 445.5,169.167 445.5,155.833 445.5,142.5 Z"/></g>
<g><path style="opacity:1" fill="#517aad" d="M 482.5,142.5 C 490.507,142.334 498.507,142.5 506.5,143C 512.16,144.164 515.16,147.664 515.5,153.5C 514.82,159.678 511.487,163.511 505.5,165C 510.821,169.449 514.821,174.949 517.5,181.5C 514.554,182.655 511.554,182.821 508.5,182C 505.167,177 501.833,172 498.5,167C 495.986,165.748 493.32,165.248 490.5,165.5C 490.5,171.167 490.5,176.833 490.5,182.5C 487.833,182.5 485.167,182.5 482.5,182.5C 482.5,169.167 482.5,155.833 482.5,142.5 Z"/></g>
<g><path style="opacity:1" fill="#517bad" d="M 534.5,142.5 C 537.167,142.5 539.833,142.5 542.5,142.5C 547.203,155.579 552.203,168.579 557.5,181.5C 554.572,182.484 551.572,182.817 548.5,182.5C 548.776,175.033 545.276,172.033 538,173.5C 535.5,173.667 533,173.833 530.5,174C 529.071,176.69 528.071,179.523 527.5,182.5C 524.482,182.665 521.482,182.498 518.5,182C 523.978,168.879 529.311,155.713 534.5,142.5 Z"/></g>
<g><path style="opacity:1" fill="#517eaf" d="M 559.5,142.5 C 570.5,142.5 581.5,142.5 592.5,142.5C 592.5,144.833 592.5,147.167 592.5,149.5C 588.5,149.5 584.5,149.5 580.5,149.5C 580.5,160.5 580.5,171.5 580.5,182.5C 577.833,182.5 575.167,182.5 572.5,182.5C 572.5,171.5 572.5,160.5 572.5,149.5C 568.167,149.5 563.833,149.5 559.5,149.5C 559.5,147.167 559.5,144.833 559.5,142.5 Z"/></g>
<g><path style="opacity:1" fill="#517aad" d="M 640.5,142.5 C 648.507,142.334 656.507,142.5 664.5,143C 670.16,144.164 673.16,147.664 673.5,153.5C 672.82,159.678 669.487,163.511 663.5,165C 664.579,165.956 665.745,166.789 667,167.5C 670.042,172.419 673.209,177.252 676.5,182C 673.167,182.667 669.833,182.667 666.5,182C 663.167,177 659.833,172 656.5,167C 653.986,165.748 651.32,165.248 648.5,165.5C 648.5,171.167 648.5,176.833 648.5,182.5C 645.833,182.5 643.167,182.5 640.5,182.5C 640.5,169.167 640.5,155.833 640.5,142.5 Z"/></g>
<g><path style="opacity:1" fill="#8ccef1" d="M 48.5,162.5 C 44.4291,162.88 40.7624,161.88 37.5,159.5C 36.108,157.443 35.4413,155.109 35.5,152.5C 38.3926,140.642 44.5593,138.642 54,146.5C 56.989,153.517 55.1557,158.85 48.5,162.5 Z"/></g>
<g><path style="opacity:1" fill="#fafbfb" d="M 610.5,148.5 C 624.398,148.931 629.231,155.931 625,169.5C 620.733,176.876 614.899,178.376 607.5,174C 603.681,168.795 602.514,162.962 604,156.5C 605.305,153.039 607.471,150.372 610.5,148.5 Z"/></g>
<g><path style="opacity:1" fill="#fafcfb" d="M 490.5,149.5 C 495.179,149.334 499.845,149.501 504.5,150C 507.167,152.667 507.167,155.333 504.5,158C 499.845,158.499 495.179,158.666 490.5,158.5C 490.5,155.5 490.5,152.5 490.5,149.5 Z"/></g>
<g><path style="opacity:1" fill="#fafcfb" d="M 648.5,149.5 C 653.179,149.334 657.845,149.501 662.5,150C 665.167,152.667 665.167,155.333 662.5,158C 657.845,158.499 653.179,158.666 648.5,158.5C 648.5,155.5 648.5,152.5 648.5,149.5 Z"/></g>
<g><path style="opacity:1" fill="#0a609e" d="M 156.5,159.5 C 145.495,159.333 134.495,159.5 123.5,160C 122.956,160.717 122.289,161.217 121.5,161.5C 121.5,161.167 121.5,160.833 121.5,160.5C 122.544,157.408 123.878,154.408 125.5,151.5C 134.816,150.335 144.149,150.168 153.5,151C 154.929,153.69 155.929,156.523 156.5,159.5 Z"/></g>
<g><path style="opacity:1" fill="#f7f9fa" d="M 53.5,181.5 C 48.456,181.827 43.456,181.494 38.5,180.5C 37.0278,177.195 34.6945,174.695 31.5,173C 33.1667,170.667 34.8333,168.333 36.5,166C 39.4297,166.439 42.4297,166.939 45.5,167.5C 47.0451,167.489 48.3784,167.156 49.5,166.5C 56.4847,164.566 60.1513,159.9 60.5,152.5C 65.8746,152.172 71.2079,152.505 76.5,153.5C 78.1667,156.167 79.8333,158.833 81.5,161.5C 79.3501,164.151 77.0168,166.651 74.5,169C 71.5144,168.872 68.5144,168.872 65.5,169C 58.5691,170.43 54.5691,174.596 53.5,181.5 Z"/></g>
<g><path style="opacity:1" fill="#fafcfc" d="M 272.5,172.5 C 269.362,174.807 266.695,177.641 264.5,181C 259.511,181.499 254.511,181.666 249.5,181.5C 249.312,178.794 248.312,176.461 246.5,174.5C 244.747,172.777 242.747,171.277 240.5,170C 236.425,169.482 232.425,169.482 228.5,170C 225.808,167.443 223.475,164.609 221.5,161.5C 223.293,158.749 224.959,155.916 226.5,153C 232.491,152.501 238.491,152.334 244.5,152.5C 246.304,165.235 253.304,169.568 265.5,165.5C 268.068,167.673 270.401,170.006 272.5,172.5 Z"/></g>
<g><path style="opacity:1" fill="#f5f6f5" d="M 537.5,153.5 C 539.772,157.452 541.772,161.618 543.5,166C 540.183,166.498 536.85,166.665 533.5,166.5C 534.435,162.031 535.768,157.697 537.5,153.5 Z"/></g>
<g><path style="opacity:1" fill="#849eb3" d="M 106.5,159.5 C 111.305,160.487 116.305,160.821 121.5,160.5C 121.5,160.833 121.5,161.167 121.5,161.5C 116.167,161.5 110.833,161.5 105.5,161.5C 105.328,160.508 105.662,159.842 106.5,159.5 Z"/></g>
<g><path style="opacity:1" fill="#124270" d="M 276.5,170.5 C 275.167,171.167 273.833,171.833 272.5,172.5C 270.401,170.006 268.068,167.673 265.5,165.5C 253.304,169.568 246.304,165.235 244.5,152.5C 238.491,152.334 232.491,152.501 226.5,153C 224.959,155.916 223.293,158.749 221.5,161.5C 223.475,164.609 225.808,167.443 228.5,170C 232.425,169.482 236.425,169.482 240.5,170C 242.747,171.277 244.747,172.777 246.5,174.5C 245.978,176.219 244.978,177.552 243.5,178.5C 236.88,172.661 231.047,173.327 226,180.5C 224.842,185.307 225.676,189.64 228.5,193.5C 227.761,193.369 227.094,193.536 226.5,194C 227.696,194.654 227.696,195.154 226.5,195.5C 225.583,194.873 224.583,194.539 223.5,194.5C 221.132,192.044 220.132,189.044 220.5,185.5C 215.489,185.666 210.489,185.499 205.5,185C 207.96,183.542 210.127,181.709 212,179.5C 214.737,180.61 217.571,180.777 220.5,180C 221.708,177.75 223.041,175.583 224.5,173.5C 222.902,170.399 220.735,167.732 218,165.5C 218.035,170.295 216.702,174.628 214,178.5C 215.773,172.07 216.773,165.404 217,158.5C 221.906,154.539 221.406,152.539 215.5,152.5C 215.5,150.833 215.5,149.167 215.5,147.5C 218.187,147.664 220.854,147.497 223.5,147C 224.464,145.275 225.131,143.441 225.5,141.5C 227.083,141.566 228.75,141.233 230.5,140.5C 230.167,142.5 229.833,144.5 229.5,146.5C 228.957,146.56 228.624,146.893 228.5,147.5C 233.986,148.815 239.32,148.815 244.5,147.5C 249.353,136.232 257.353,133.398 268.5,139C 275.525,146.332 276.192,154.166 270.5,162.5C 272.14,165.468 274.14,168.135 276.5,170.5 Z"/></g>
<g><path style="opacity:1" fill="#81c7ed" d="M 254.5,141.5 C 265.439,139.94 270.272,144.606 269,155.5C 263.48,163.955 257.146,164.622 250,157.5C 247.539,151.051 249.039,145.718 254.5,141.5 Z"/></g>
<g><path style="opacity:1" fill="#6d8da7" d="M 229.5,146.5 C 234.305,147.487 239.305,147.821 244.5,147.5C 239.32,148.815 233.986,148.815 228.5,147.5C 228.624,146.893 228.957,146.56 229.5,146.5 Z"/></g>
<g><path style="opacity:1" fill="#0c3a66" d="M 37.5,159.5 C 40.7624,161.88 44.4291,162.88 48.5,162.5C 48.8333,163.833 49.1667,165.167 49.5,166.5C 48.3784,167.156 47.0451,167.489 45.5,167.5C 42.4297,166.939 39.4297,166.439 36.5,166C 34.8333,168.333 33.1667,170.667 31.5,173C 34.6945,174.695 37.0278,177.195 38.5,180.5C 43.456,181.494 48.456,181.827 53.5,181.5C 54.7899,182.058 55.6232,183.058 56,184.5C 56.3333,183.833 56.6667,183.167 57,182.5C 57.21,184.058 57.71,185.391 58.5,186.5C 60.8407,194.229 65.8407,196.729 73.5,194C 78.542,189.943 79.8753,184.776 77.5,178.5C 78.771,178.205 80.4377,177.872 82.5,177.5C 84.0106,179.441 86.0106,179.941 88.5,179C 87.4238,177.274 87.2571,175.441 88,173.5C 89,175.5 90,177.5 91,179.5C 93.5888,181.211 96.0888,183.045 98.5,185C 93.5111,185.499 88.5111,185.666 83.5,185.5C 82.8585,194.808 77.8585,199.808 68.5,200.5C 59.6105,199.942 54.6105,195.276 53.5,186.5C 48.8215,186.334 44.1548,186.501 39.5,187C 34.0315,198.712 26.5315,200.212 17,191.5C 13.3165,181.7 16.4831,175.2 26.5,172C 28.4884,168.499 30.8217,165.332 33.5,162.5C 34.5261,161.147 35.8595,160.147 37.5,159.5 Z"/></g>
<g><path style="opacity:1" fill="#0c3660" d="M 276.5,170.5 C 279.621,172.737 282.787,175.071 286,177.5C 290.575,187.881 287.409,194.548 276.5,197.5C 270.38,196.714 266.38,193.38 264.5,187.5C 259.833,186.167 255.167,186.167 250.5,187.5C 247.873,197.986 241.206,202.153 230.5,200C 227.405,199.065 225.071,197.231 223.5,194.5C 224.583,194.539 225.583,194.873 226.5,195.5C 227.696,195.154 227.696,194.654 226.5,194C 227.094,193.536 227.761,193.369 228.5,193.5C 237.604,197.614 243.271,194.781 245.5,185C 245.125,182.711 244.459,180.545 243.5,178.5C 244.978,177.552 245.978,176.219 246.5,174.5C 248.312,176.461 249.312,178.794 249.5,181.5C 254.511,181.666 259.511,181.499 264.5,181C 266.695,177.641 269.362,174.807 272.5,172.5C 273.833,171.833 275.167,171.167 276.5,170.5 Z"/></g>
<g><path style="opacity:1" fill="#8ccbf0" d="M 77.5,178.5 C 79.8753,184.776 78.542,189.943 73.5,194C 65.8407,196.729 60.8407,194.229 58.5,186.5C 58.2475,183.68 58.7475,181.014 60,178.5C 65.8318,173.208 71.6652,173.208 77.5,178.5 Z"/></g>
<g><path style="opacity:1" fill="#5eaee3" d="M 243.5,178.5 C 244.459,180.545 245.125,182.711 245.5,185C 243.271,194.781 237.604,197.614 228.5,193.5C 225.676,189.64 224.842,185.307 226,180.5C 231.047,173.327 236.88,172.661 243.5,178.5 Z"/></g>
<g><path style="opacity:1" fill="#4597e2" d="M 25.5,177.5 C 31.6564,177.487 34.4898,180.487 34,186.5C 30.178,192.746 25.8447,193.079 21,187.5C 20.0769,183.017 21.5769,179.683 25.5,177.5 Z"/></g>
<g><path style="opacity:1" fill="#3488d2" d="M 272.5,178.5 C 280.665,177.164 283.831,180.497 282,188.5C 278.61,192.032 274.943,192.366 271,189.5C 268.842,185.461 269.342,181.794 272.5,178.5 Z"/></g>
<g><path style="opacity:1" fill="#f8fbfb" d="M 146.5,228.5 C 144.271,229.055 142.605,230.389 141.5,232.5C 134.329,228.08 126.996,223.914 119.5,220C 117.201,216.668 115.201,213.168 113.5,209.5C 114.851,203.45 117.185,197.783 120.5,192.5C 129.372,198.124 139.039,201.124 149.5,201.5C 149.666,209.84 149.5,218.173 149,226.5C 148.005,227.066 147.172,227.733 146.5,228.5 Z"/></g>
<g><path style="opacity:1" fill="#0e3c69" d="M 163.5,237.5 C 162.178,237.67 161.011,237.337 160,236.5C 159.79,238.058 159.29,239.391 158.5,240.5C 159.244,235.409 157.077,232.409 152,231.5C 149.915,232.124 148.082,233.124 146.5,234.5C 146.166,232.332 146.166,230.332 146.5,228.5C 147.172,227.733 148.005,227.066 149,226.5C 149.5,218.173 149.666,209.84 149.5,201.5C 139.039,201.124 129.372,198.124 120.5,192.5C 117.185,197.783 114.851,203.45 113.5,209.5C 112.468,207.622 111.134,205.955 109.5,204.5C 112.021,198.943 114.355,193.276 116.5,187.5C 112.941,186.858 109.607,185.691 106.5,184C 136.833,183.333 167.167,183.333 197.5,184C 195.51,185.751 193.177,186.751 190.5,187C 188.675,188.466 188.175,190.299 189,192.5C 191,196.5 193,200.5 195,204.5C 197.545,205.522 200.045,206.688 202.5,208C 204.451,209.734 205.451,211.901 205.5,214.5C 210.875,214.828 216.208,214.495 221.5,213.5C 226.02,204.976 232.354,203.309 240.5,208.5C 245.803,214.965 245.803,221.465 240.5,228C 230.381,233.104 223.714,230.271 220.5,219.5C 215.489,219.334 210.489,219.501 205.5,220C 200.747,226.562 195.58,227.062 190,221.5C 181.281,227.059 172.447,232.392 163.5,237.5 Z"/></g>
<g><path style="opacity:1" fill="#f3fafc" d="M 155.5,186.5 C 164.839,186.334 174.173,186.5 183.5,187C 174.799,193.067 165.132,196.234 154.5,196.5C 154.253,193.061 154.586,189.728 155.5,186.5 Z"/></g>
<g><path style="opacity:1" fill="#f3fafc" d="M 121.5,187.5 C 130.652,186.506 139.985,186.173 149.5,186.5C 149.5,189.833 149.5,193.167 149.5,196.5C 139.231,196.269 129.898,193.269 121.5,187.5 Z"/></g>
<g><path style="opacity:1" fill="#f9fbfc" d="M 183.5,192.5 C 186.266,197.191 188.932,202.024 191.5,207C 188.773,209.956 187.273,213.456 187,217.5C 179.148,222.426 171.148,227.093 163,231.5C 160.518,229.589 157.851,227.923 155,226.5C 154.5,218.173 154.334,209.84 154.5,201.5C 165.157,201.378 174.824,198.378 183.5,192.5 Z"/></g>
<g><path style="opacity:1" fill="#083360" d="M 109.5,204.5 C 111.134,205.955 112.468,207.622 113.5,209.5C 115.201,213.168 117.201,216.668 119.5,220C 126.996,223.914 134.329,228.08 141.5,232.5C 142.605,230.389 144.271,229.055 146.5,228.5C 146.166,230.332 146.166,232.332 146.5,234.5C 143.711,242.208 146.378,245.708 154.5,245C 156.751,244.252 158.084,242.752 158.5,240.5C 159.29,239.391 159.79,238.058 160,236.5C 161.011,237.337 162.178,237.67 163.5,237.5C 163.043,247.783 157.709,251.949 147.5,250C 142.151,247.141 139.484,242.641 139.5,236.5C 130.904,231.953 122.404,227.286 114,222.5C 107.63,226.027 102.464,224.86 98.5,219C 93.4066,218.428 88.4066,218.928 83.5,220.5C 77.9154,230.796 70.7487,232.129 62,224.5C 58.3498,217.766 59.5165,211.932 65.5,207C 73.9071,203.295 79.9071,205.628 83.5,214C 88.6178,214.888 93.6178,214.555 98.5,213C 101.23,208.669 104.897,205.836 109.5,204.5 Z"/></g>
<g><path style="opacity:1" fill="#4195e0" d="M 69.5,210.5 C 77.0448,210.863 79.5448,214.529 77,221.5C 73.0434,225.53 69.3768,225.197 66,220.5C 64.7563,216.191 65.9229,212.858 69.5,210.5 Z"/></g>
<g><path style="opacity:1" fill="#4da0ea" d="M 105.5,211.5 C 110.709,211.369 112.375,213.703 110.5,218.5C 103.37,220.277 101.703,217.944 105.5,211.5 Z"/></g>
<g><path style="opacity:1" fill="#46a2e7" d="M 194.5,211.5 C 198.459,210.578 200.792,212.078 201.5,216C 201.241,217.261 200.574,218.261 199.5,219C 192.369,220.211 190.702,217.711 194.5,211.5 Z"/></g>
<g><path style="opacity:1" fill="#4491d8" d="M 230.5,210.5 C 238.6,211.088 241.1,215.088 238,222.5C 231.729,227.121 227.562,225.621 225.5,218C 225.831,214.52 227.498,212.02 230.5,210.5 Z"/></g>
<g><path style="opacity:1" fill="#388cd7" d="M 158.5,240.5 C 158.084,242.752 156.751,244.252 154.5,245C 146.378,245.708 143.711,242.208 146.5,234.5C 148.082,233.124 149.915,232.124 152,231.5C 157.077,232.409 159.244,235.409 158.5,240.5 Z"/></g>
</svg>
